<?xml version="1.0" encoding="UTF-8"?>
<!DOCTYPE svg PUBLIC "-//W3C//DTD SVG 1.1//EN" "http://www.w3.org/Graphics/SVG/1.1/DTD/svg11.dtd">
<svg version="1.1" xmlns="http://www.w3.org/2000/svg" xmlns:xlink="http://www.w3.org/1999/xlink" x="0" y="0" width="897.428" height="270.907" viewBox="0, 0, 897.428, 270.907">
  <g id="Layer_1" transform="translate(-54.286, -152.46)">
    <g>
      <path d="M59.286,418.367 L59.286,157.46 L946.714,157.46 L946.714,418.367 z" fill="#000000"/>
      <g>
        <path d="M59.786,418.867 L59.786,157.96 L947.214,157.96 L947.214,418.867 z" fill="#000000"/>
        <path d="M59.786,418.867 L59.786,157.96 L947.214,157.96 L947.214,418.867 z" fill-opacity="0" stroke="#EAEAEA" stroke-width="3"/>
      </g>
    </g>
    <g>
      <path d="M503.804,227.913 C504.006,227.934 503.929,227.908 504.044,227.957 L504.046,227.947 L506.897,228.759 L506.894,228.769 C507.173,228.888 507.088,228.813 507.196,228.922 L507.202,228.915 L509.963,231.082 L509.958,231.089 L510.091,231.224 L510.101,231.216 L511.355,232.731 L513.607,231.868 L513.612,231.884 L513.694,231.849 L513.691,231.84 L516.368,231.114 L516.371,231.122 C516.475,231.077 516.402,231.103 516.6,231.083 C516.808,231.104 516.724,231.077 516.858,231.134 L516.861,231.122 L519.134,231.827 L519.13,231.839 L519.315,231.917 L519.32,231.909 L521.402,233.127 L521.397,233.136 C521.511,233.184 521.44,233.146 521.584,233.291 L521.595,233.279 L523.663,235.427 L523.651,235.439 C523.807,235.597 523.744,235.503 523.835,235.723 L523.85,235.717 L525.173,238.992 L525.157,238.999 C525.225,239.161 525.216,239.097 525.224,239.178 L525.226,239.178 L525.564,241.126 L527.94,241.519 L527.94,241.522 C527.994,241.528 527.965,241.521 528.025,241.547 L528.027,241.538 L530.704,242.265 L530.702,242.274 C531.034,242.416 530.903,242.319 531.115,242.534 L531.126,242.523 L532.747,244.284 L532.736,244.295 C532.849,244.411 532.817,244.352 532.859,244.454 L532.868,244.449 L534.07,246.56 L534.062,246.565 L534.155,246.791 L534.162,246.789 L534.893,249.697 L534.886,249.699 C534.926,249.795 534.901,249.724 534.921,249.921 L534.909,250.043 L534.913,250.043 L534.442,253.55 L534.438,253.549 C534.428,253.654 534.44,253.592 534.381,253.732 L534.396,253.738 L533.728,255.596 L535.591,257.141 L535.584,257.15 L535.646,257.213 L535.657,257.201 L537.617,259.187 L537.606,259.199 C537.803,259.399 537.704,259.268 537.852,259.625 L537.856,259.624 L538.391,261.971 L538.387,261.972 C538.419,262.049 538.395,261.985 538.413,262.175 L538.413,264.612 C538.393,264.816 538.419,264.739 538.37,264.855 L538.38,264.858 L537.578,267.746 L537.569,267.744 C537.451,268.026 537.526,267.94 537.417,268.05 L537.425,268.056 L535.287,270.854 L535.28,270.848 L535.146,270.984 L535.154,270.994 L533.659,272.264 L534.511,274.546 L534.496,274.552 L534.53,274.635 L534.538,274.632 L535.255,277.345 L535.247,277.347 C535.291,277.453 535.266,277.379 535.286,277.58 C535.265,277.791 535.291,277.706 535.235,277.841 L535.247,277.845 L534.552,280.148 L534.54,280.144 L534.462,280.331 L534.471,280.336 L533.268,282.447 L533.26,282.442 C533.212,282.557 533.25,282.486 533.107,282.631 L533.119,282.642 L530.999,284.738 L530.988,284.726 C530.832,284.884 530.924,284.82 530.707,284.912 L530.713,284.928 L527.481,286.268 L527.475,286.252 C527.315,286.321 527.378,286.312 527.297,286.32 L527.298,286.322 L525.376,286.665 L524.988,289.073 L524.985,289.072 C524.979,289.127 524.986,289.097 524.961,289.158 L524.969,289.161 L524.252,291.874 L524.243,291.871 C524.103,292.208 524.199,292.076 523.987,292.29 L523.998,292.302 L522.259,293.944 L522.248,293.933 C522.135,294.048 522.193,294.015 522.092,294.058 L522.097,294.066 L520.014,295.285 L520.009,295.276 L519.786,295.371 L519.788,295.378 L516.918,296.119 L516.916,296.112 C516.822,296.153 516.892,296.127 516.698,296.147 L516.578,296.135 L516.577,296.139 L513.117,295.662 L513.117,295.658 C513.014,295.647 513.076,295.66 512.937,295.6 L512.931,295.615 L511.098,294.939 L509.574,296.827 L509.564,296.819 L509.502,296.882 L509.514,296.894 L507.554,298.88 L507.543,298.868 C507.345,299.068 507.474,298.968 507.122,299.118 L507.123,299.122 L504.807,299.664 L504.806,299.66 C504.731,299.692 504.793,299.668 504.606,299.687 L502.201,299.687 C502,299.666 502.077,299.692 501.962,299.643 L501.959,299.653 L499.109,298.84 L499.111,298.831 C498.833,298.712 498.918,298.787 498.809,298.677 L498.803,298.685 L496.042,296.518 L496.048,296.511 L495.914,296.376 L495.904,296.384 L494.651,294.869 L492.399,295.732 L492.393,295.716 L492.312,295.751 L492.314,295.759 L489.637,296.486 L489.635,296.478 C489.53,296.522 489.604,296.497 489.406,296.517 C489.198,296.496 489.281,296.522 489.148,296.466 L489.144,296.478 L486.872,295.773 L486.875,295.761 L486.691,295.683 L486.686,295.691 L484.603,294.473 L484.608,294.464 C484.495,294.415 484.565,294.454 484.422,294.309 L484.41,294.321 L482.343,292.173 L482.354,292.161 C482.198,292.003 482.262,292.096 482.171,291.877 L482.155,291.883 L480.833,288.608 L480.848,288.601 C480.781,288.439 480.79,288.503 480.782,288.421 L480.78,288.422 L480.441,286.474 L478.066,286.08 L478.066,286.078 C478.012,286.072 478.041,286.079 477.981,286.053 L477.978,286.061 L475.302,285.334 L475.304,285.326 C474.971,285.184 475.102,285.281 474.891,285.066 L474.879,285.077 L473.258,283.315 L473.27,283.304 C473.156,283.189 473.189,283.248 473.147,283.146 L473.138,283.151 L471.935,281.04 L471.944,281.035 L471.85,280.809 L471.843,280.81 L471.112,277.902 L471.119,277.901 C471.08,277.805 471.104,277.876 471.085,277.679 L471.097,277.557 L471.093,277.557 L471.564,274.05 L471.568,274.05 C471.578,273.946 471.566,274.008 471.624,273.867 L471.609,273.862 L472.277,272.004 L470.414,270.459 L470.422,270.45 L470.36,270.387 L470.348,270.398 L468.388,268.412 L468.4,268.401 C468.203,268.201 468.301,268.332 468.153,267.975 L468.149,267.976 L467.615,265.629 L467.619,265.628 C467.587,265.551 467.611,265.615 467.592,265.425 L467.592,262.987 C467.612,262.783 467.587,262.861 467.635,262.745 L467.626,262.742 L468.427,259.853 L468.437,259.856 C468.554,259.574 468.48,259.66 468.588,259.55 L468.581,259.544 L470.719,256.746 L470.726,256.751 L470.859,256.616 L470.851,256.606 L472.346,255.335 L471.495,253.053 L471.51,253.048 L471.476,252.965 L471.467,252.967 L470.75,250.255 L470.758,250.252 C470.714,250.146 470.74,250.221 470.72,250.02 C470.741,249.809 470.714,249.894 470.771,249.759 L470.759,249.755 L471.454,247.452 L471.466,247.455 L471.543,247.269 L471.535,247.264 L472.737,245.153 L472.746,245.158 C472.793,245.043 472.755,245.114 472.898,244.969 L472.887,244.957 L475.007,242.862 L475.018,242.874 C475.174,242.716 475.082,242.78 475.299,242.688 L475.292,242.672 L478.524,241.332 L478.531,241.347 C478.69,241.279 478.628,241.288 478.708,241.28 L478.708,241.278 L480.629,240.935 L481.018,238.527 L481.021,238.528 C481.026,238.473 481.02,238.502 481.045,238.441 L481.037,238.439 L481.754,235.726 L481.762,235.728 C481.902,235.391 481.807,235.524 482.019,235.31 L482.008,235.298 L483.746,233.655 L483.757,233.667 C483.871,233.552 483.813,233.585 483.914,233.542 L483.909,233.533 L485.992,232.315 L485.997,232.323 L486.22,232.228 L486.218,232.221 L489.087,231.481 L489.089,231.488 C489.184,231.447 489.114,231.472 489.308,231.453 L489.428,231.465 L489.428,231.461 L492.889,231.938 L492.888,231.942 C492.992,231.952 492.93,231.94 493.069,231.999 L493.074,231.984 L494.908,232.661 L496.432,230.773 L496.441,230.781 L496.503,230.718 L496.492,230.706 L498.451,228.72 L498.463,228.732 C498.66,228.532 498.531,228.632 498.883,228.482 L498.882,228.478 L501.198,227.936 L501.199,227.94 C501.275,227.908 501.212,227.932 501.399,227.913 L503.804,227.913 z M502.008,290.309 L501.914,290.418 L501.903,290.408 L501.835,290.476 L501.846,290.488 L500.537,291.702 L500.526,291.691 C500.413,291.806 500.473,291.768 500.355,291.819 L500.361,291.83 L498.719,292.736 L497.034,293.719 L497.029,293.71 L496.969,293.736 L496.976,293.75 L496.322,294.069 L497.212,295.145 L499.76,297.144 L502.324,297.875 L504.504,297.875 L506.471,297.415 L508.218,295.645 L509.332,294.266 L506.172,292.709 L506.178,292.695 L506.13,292.674 L506.125,292.684 L503.234,291.04 L503.24,291.03 L503.223,291.023 L503.218,291.031 L502.008,290.309 z M489.062,286.254 L488.927,286.3 L488.923,286.286 L488.833,286.324 L488.834,286.326 L488.821,286.329 C488.821,286.329 488.821,286.329 488.82,286.329 L487.101,286.715 L487.1,286.712 C487.032,286.741 487.092,286.717 486.908,286.736 L486.886,286.734 L486.886,286.736 L485.018,286.689 L483.073,286.686 L483.073,286.686 L483.007,286.679 L483.007,286.684 L482.283,286.629 L482.523,288.011 L483.744,291.034 L485.604,292.966 L487.492,294.071 L489.422,294.669 L491.808,294.021 L493.453,293.391 L491.484,290.442 L491.484,290.442 C491.484,290.441 491.484,290.441 491.483,290.441 C491.477,290.424 491.47,290.408 491.463,290.392 L491.456,290.397 L489.764,287.508 L489.771,287.503 L489.764,287.487 L489.755,287.492 L489.062,286.254 z M523.514,286.977 L520.01,287.23 L520.01,287.226 L519.957,287.231 L519.957,287.232 L516.642,287.273 L516.642,287.272 L516.631,287.274 L516.624,287.273 L516.624,287.274 L515.22,287.262 L515.192,287.404 L515.192,287.403 C515.188,287.439 515.192,287.407 515.155,287.495 L515.168,287.499 L514.633,289.214 L514.621,289.21 L514.538,289.41 L514.544,289.413 L513.569,291.029 L512.595,292.735 L512.586,292.73 C512.562,292.789 512.577,292.773 512.559,292.791 L512.56,292.792 L512.151,293.399 L513.453,293.88 L516.646,294.32 L519.227,293.654 L521.115,292.549 L522.591,291.154 L523.231,288.736 L523.514,286.977 z M495.588,234.84 L494.941,235.801 L493.978,237.488 L493.97,237.483 L493.961,237.503 L493.967,237.506 L493.044,239.037 L492.628,240.371 L492.727,240.413 L492.732,240.399 L495.313,241.284 L495.309,241.298 L495.469,241.366 L495.474,241.358 L497.711,242.667 L497.706,242.675 C497.775,242.705 497.749,242.685 497.79,242.727 L497.794,242.721 L499.743,244.175 L499.739,244.18 L499.917,244.36 L499.923,244.354 L501.33,246.219 L501.323,246.225 C501.38,246.283 501.354,246.246 501.393,246.342 L501.404,246.336 L502.303,248.009 L502.292,248.015 C502.408,248.294 502.385,248.171 502.405,248.371 L502.409,248.371 L502.545,250.118 L502.541,250.118 L502.548,250.189 C502.548,250.69 502.148,251.095 501.654,251.095 C501.182,251.075 500.815,250.74 500.767,250.26 L500.763,250.26 L500.642,248.706 L499.867,247.264 L498.581,245.557 L496.774,244.211 L494.657,242.972 L492.295,242.162 L492.249,242.161 L492.221,242.301 L492.162,243.146 C492.233,243.317 492.205,243.219 492.228,243.443 L492.218,243.543 L492.222,243.543 L492.133,244.356 L492.129,244.355 C492.092,244.844 491.686,245.116 491.245,245.162 C490.751,245.162 490.351,244.756 490.351,244.256 L490.351,243.443 L490.357,243.379 L490.353,243.379 L490.44,242.147 L489.375,242.138 L486.097,242.179 L482.521,242.437 L482.294,242.477 L482.208,243.637 L482.206,245.586 L482.205,245.586 L482.203,245.607 L482.205,245.607 L482.161,247.401 L482.462,248.78 L482.558,248.74 C482.56,248.739 482.561,248.739 482.563,248.739 L482.563,248.739 L485.229,248.198 C485.231,248.198 485.23,248.198 485.232,248.198 L485.235,248.197 L485.235,248.197 L485.41,248.179 L487.994,248.179 L488.092,248.189 L488.092,248.185 L490.497,248.456 L490.497,248.46 C490.635,248.474 490.553,248.458 490.736,248.536 L490.742,248.52 L492.88,249.423 L492.874,249.438 L492.999,249.492 L493.002,249.486 L494.606,250.479 L494.602,250.485 C494.742,250.544 494.63,250.491 494.875,250.74 L494.876,250.739 L494.881,250.745 C494.881,250.745 494.881,250.745 494.881,250.746 L495.856,252.183 L495.855,252.184 C495.994,252.458 495.989,252.452 496.013,252.696 C496.013,253.197 495.613,253.602 495.12,253.602 C494.771,253.601 494.614,253.441 494.384,253.209 L494.383,253.209 L494.379,253.203 C494.378,253.203 494.378,253.203 494.378,253.203 L493.511,251.924 L492.129,251.068 L490.173,250.242 L487.944,249.991 L485.499,249.991 L483.054,250.487 L483.014,250.51 L483.059,250.645 L483.422,251.401 C483.633,251.615 483.563,251.501 483.657,251.727 L483.673,251.72 L483.996,252.469 L483.981,252.475 C484.077,252.706 484.047,252.587 484.071,252.832 C484.071,253.332 483.671,253.738 483.178,253.738 C482.878,253.721 482.538,253.583 482.413,253.282 L482.412,253.28 L482.404,253.285 L482.359,253.207 L482.003,252.581 L482.011,252.576 L481.987,252.518 L481.973,252.524 L481.44,251.413 L480.515,251.945 L477.694,253.642 L474.726,255.677 L474.548,255.828 L475.046,256.876 L476.006,258.565 L475.997,258.57 L476.005,258.589 L476.016,258.583 L476.863,260.159 L477.803,261.199 L477.88,261.125 L477.871,261.114 L479.918,259.291 L479.927,259.302 C480.023,259.205 479.973,259.235 480.066,259.195 L480.061,259.187 L482.298,257.878 L482.303,257.886 L482.393,257.848 L482.386,257.833 L484.602,256.848 L484.609,256.864 C484.801,256.782 484.719,256.797 484.847,256.784 L484.846,256.78 L487.143,256.478 L487.144,256.482 L487.258,256.471 L487.28,256.473 L487.28,256.471 L489.159,256.519 L489.159,256.521 C489.388,256.544 489.268,256.516 489.514,256.621 L489.521,256.606 L491.082,257.361 L491.075,257.375 C491.419,257.497 491.558,257.84 491.591,258.178 C491.591,258.679 491.191,259.084 490.698,259.084 C490.446,259.059 490.573,259.09 490.32,258.982 L490.313,258.996 L488.924,258.325 L487.304,258.284 L485.203,258.56 L483.149,259.472 L481.031,260.711 L479.158,262.379 L479.135,262.419 L479.24,262.513 L479.909,262.971 C480.051,262.981 480.198,263.036 480.299,263.138 L480.302,263.133 L480.952,263.618 L480.949,263.623 C481.196,263.805 481.287,264.052 481.316,264.347 C481.316,264.848 480.916,265.253 480.423,265.253 C480.148,265.225 480.298,265.259 479.981,265.123 L479.976,265.132 L479.899,265.087 L479.281,264.726 L479.286,264.717 C479.267,264.709 479.248,264.701 479.229,264.692 C479.228,264.692 479.228,264.692 479.228,264.691 L479.227,264.691 L478.218,263.999 L477.678,264.93 L476.074,267.827 L474.507,271.094 L474.428,271.315 L475.376,271.97 L477.04,272.946 L477.035,272.955 L477.054,272.963 L477.058,272.957 L478.568,273.892 L479.888,274.315 C479.898,274.265 479.889,274.3 479.926,274.214 L479.912,274.209 L480.786,271.593 L480.8,271.597 L480.867,271.435 L480.858,271.43 L482.15,269.163 L482.159,269.168 C482.188,269.098 482.168,269.124 482.209,269.083 L482.204,269.079 L483.638,267.104 L483.643,267.107 L483.821,266.927 L483.815,266.921 L485.656,265.496 L485.661,265.503 C485.719,265.444 485.682,265.471 485.777,265.431 L485.771,265.42 L487.421,264.509 L487.427,264.52 C487.702,264.403 487.582,264.426 487.779,264.406 L487.778,264.402 L489.502,264.264 L489.503,264.268 L489.573,264.261 C490.066,264.261 490.467,264.667 490.467,265.167 C490.446,265.645 490.116,266.017 489.643,266.066 L489.643,266.07 L488.109,266.193 L486.686,266.978 L485.002,268.282 L483.673,270.112 L482.451,272.258 L481.652,274.652 L481.651,274.698 L481.789,274.726 L482.623,274.787 C482.792,274.715 482.695,274.742 482.916,274.72 L483.014,274.73 L483.015,274.725 L483.817,274.816 L483.816,274.82 C484.299,274.857 484.567,275.269 484.612,275.716 C484.612,276.216 484.212,276.622 483.718,276.622 L482.916,276.622 L482.853,276.615 L482.853,276.62 L481.637,276.532 L481.628,277.611 L481.668,280.933 L481.923,284.557 L481.963,284.788 L483.108,284.874 L485.03,284.877 L485.03,284.877 L485.052,284.879 L485.052,284.877 L486.821,284.922 L488.182,284.617 L488.142,284.52 C488.142,284.518 488.142,284.516 488.142,284.515 L488.141,284.515 L487.608,281.812 C487.608,281.811 487.608,281.812 487.608,281.81 L487.607,281.807 L487.607,281.807 L487.59,281.629 L487.59,279.011 L487.6,278.911 L487.595,278.911 L487.862,276.474 L487.867,276.474 C487.881,276.334 487.864,276.417 487.941,276.232 L487.926,276.225 L488.816,274.059 L488.832,274.065 L488.885,273.938 L488.879,273.935 L489.859,272.31 L489.864,272.313 C489.923,272.172 489.871,272.285 490.116,272.037 L490.115,272.036 L490.121,272.031 C490.121,272.031 490.122,272.031 490.122,272.031 L491.54,271.043 L491.541,271.044 C491.812,270.903 491.805,270.908 492.046,270.883 C492.54,270.883 492.94,271.289 492.94,271.789 C492.939,272.142 492.782,272.302 492.552,272.534 L492.553,272.536 L492.546,272.54 C492.546,272.54 492.546,272.54 492.546,272.54 L491.285,273.419 L490.44,274.82 L489.625,276.802 L489.377,279.061 L489.377,281.539 L489.866,284.017 L489.889,284.057 L490.022,284.012 L490.769,283.644 C490.98,283.43 490.867,283.501 491.09,283.406 L491.083,283.39 L491.822,283.062 L491.829,283.078 C492.056,282.98 491.939,283.011 492.181,282.986 C492.674,282.986 493.074,283.391 493.074,283.892 C493.058,284.196 492.922,284.54 492.624,284.667 L492.623,284.668 L492.628,284.676 L492.55,284.721 L491.933,285.082 L491.928,285.074 L491.87,285.098 L491.877,285.113 L490.781,285.652 L491.305,286.591 L492.98,289.449 L494.988,292.457 L495.137,292.637 L496.171,292.132 L497.837,291.16 L497.842,291.169 L497.861,291.161 L497.855,291.15 L499.41,290.292 L500.437,289.339 L500.363,289.26 L500.352,289.27 L498.553,287.196 L498.564,287.186 C498.469,287.089 498.498,287.14 498.459,287.045 L498.451,287.05 L497.159,284.783 L497.168,284.778 L497.13,284.687 L497.115,284.694 L496.143,282.448 L496.159,282.441 C496.078,282.246 496.093,282.329 496.08,282.2 L496.076,282.201 L495.778,279.873 L495.782,279.872 L495.771,279.756 L495.773,279.734 L495.771,279.734 L495.818,277.83 L495.82,277.83 C495.843,277.598 495.815,277.72 495.919,277.47 L495.905,277.463 L496.649,275.881 L496.663,275.888 C496.784,275.539 497.122,275.399 497.456,275.365 C497.95,275.365 498.35,275.77 498.35,276.271 C498.324,276.525 498.355,276.397 498.248,276.654 L498.263,276.66 L497.6,278.068 L497.56,279.709 L497.832,281.839 L498.732,283.921 L499.955,286.067 L501.601,287.965 L501.64,287.989 L501.733,287.882 L502.185,287.205 C502.194,287.061 502.249,286.912 502.35,286.809 L502.345,286.805 L502.823,286.147 L502.828,286.151 C503.008,285.9 503.251,285.808 503.543,285.778 C504.037,285.778 504.437,286.183 504.437,286.684 C504.409,286.962 504.442,286.81 504.309,287.132 L504.317,287.137 L504.273,287.215 L503.916,287.84 L503.908,287.835 C503.9,287.855 503.892,287.874 503.883,287.894 C503.883,287.894 503.883,287.895 503.882,287.895 L503.882,287.895 L503.199,288.918 L504.118,289.465 L506.977,291.091 L510.2,292.679 L510.418,292.759 L511.064,291.798 L512.028,290.112 L512.036,290.117 L512.044,290.097 L512.038,290.094 L512.961,288.563 L513.378,287.225 C513.329,287.216 513.364,287.224 513.278,287.187 L513.274,287.201 L510.692,286.316 L510.697,286.302 L510.537,286.233 L510.532,286.242 L508.295,284.933 L508.3,284.924 C508.23,284.895 508.257,284.915 508.216,284.873 L508.212,284.878 L506.263,283.425 L506.266,283.42 L506.089,283.24 L506.082,283.245 L504.676,281.38 L504.683,281.375 C504.625,281.317 504.652,281.353 504.612,281.258 L504.601,281.264 L503.703,279.591 L503.714,279.585 C503.598,279.306 503.621,279.428 503.601,279.229 L503.597,279.229 L503.461,277.482 L503.465,277.481 L503.458,277.411 C503.458,276.91 503.858,276.505 504.352,276.505 C504.823,276.525 505.191,276.859 505.238,277.34 L505.243,277.339 L505.364,278.894 L506.138,280.336 L507.425,282.042 L509.231,283.389 L511.349,284.628 L513.711,285.438 L513.757,285.438 L513.784,285.299 L513.844,284.454 C513.773,284.283 513.8,284.38 513.778,284.157 L513.788,284.057 L513.783,284.057 L513.872,283.244 L513.877,283.245 C513.914,282.756 514.319,282.483 514.761,282.438 C515.286,282.474 515.448,282.708 515.636,283.162 L515.655,283.344 L515.655,284.157 L515.648,284.221 L515.652,284.221 L515.565,285.453 L516.629,285.462 L519.909,285.421 L523.484,285.163 L523.712,285.122 L523.798,283.963 L523.8,282.014 L523.8,282.014 L523.802,281.992 L523.8,281.992 L523.844,280.199 L523.543,278.819 L523.448,278.86 C523.446,278.86 523.444,278.861 523.443,278.861 L523.443,278.861 L520.776,279.402 C520.775,279.402 520.776,279.402 520.774,279.402 L520.771,279.403 L520.77,279.402 L520.595,279.42 L518.012,279.42 L517.914,279.41 L517.913,279.415 L515.508,279.144 L515.509,279.139 C515.37,279.125 515.452,279.142 515.27,279.064 L515.263,279.08 L513.125,278.177 L513.132,278.161 L513.007,278.108 L513.003,278.114 L511.4,277.121 L511.403,277.115 C511.264,277.055 511.376,277.109 511.13,276.86 L511.129,276.861 L511.125,276.855 C511.125,276.855 511.125,276.854 511.125,276.854 L510.149,275.417 L510.151,275.416 C510.012,275.142 510.016,275.148 509.992,274.904 C509.992,274.403 510.392,273.998 510.886,273.998 C511.234,273.999 511.392,274.159 511.621,274.391 L511.623,274.39 L511.627,274.397 C511.627,274.397 511.627,274.397 511.627,274.397 L512.494,275.676 L513.877,276.532 L515.833,277.358 L518.062,277.609 L520.507,277.609 L522.952,277.113 L522.992,277.09 L522.947,276.955 L522.584,276.198 C522.373,275.985 522.442,276.099 522.348,275.873 L522.333,275.88 L522.009,275.131 L522.025,275.124 C521.929,274.894 521.958,275.013 521.934,274.768 C521.934,274.267 522.334,273.862 522.828,273.862 C523.128,273.879 523.468,274.016 523.593,274.318 L523.594,274.319 L523.602,274.315 L523.647,274.393 L524.003,275.018 L523.994,275.023 L524.019,275.082 L524.033,275.075 L524.565,276.186 L525.491,275.655 L528.311,273.958 L531.28,271.923 L531.457,271.772 L530.959,270.724 L530,269.035 L530.009,269.03 L530,269.01 L529.99,269.016 L529.143,267.441 L528.203,266.4 L528.125,266.475 L528.135,266.486 L526.088,268.309 L526.078,268.298 C525.983,268.395 526.033,268.365 525.94,268.404 L525.945,268.413 L523.708,269.722 L523.703,269.713 L523.613,269.752 L523.62,269.767 L521.403,270.751 L521.396,270.736 C521.204,270.818 521.286,270.803 521.159,270.816 L521.159,270.82 L518.862,271.122 L518.862,271.117 L518.748,271.129 L518.725,271.127 L518.725,271.129 L516.847,271.081 L516.847,271.079 C516.618,271.056 516.738,271.084 516.491,270.979 L516.484,270.993 L514.923,270.239 L514.93,270.224 C514.586,270.103 514.448,269.76 514.414,269.421 C514.414,268.921 514.814,268.515 515.308,268.515 C515.559,268.541 515.432,268.51 515.686,268.618 L515.693,268.604 L517.082,269.275 L518.701,269.316 L520.803,269.04 L522.857,268.128 L524.974,266.889 L526.847,265.221 L526.87,265.181 L526.765,265.087 L526.097,264.629 C525.955,264.619 525.808,264.564 525.707,264.461 L525.703,264.466 L525.053,263.982 L525.057,263.977 C524.809,263.794 524.719,263.548 524.689,263.252 C524.689,262.752 525.089,262.347 525.583,262.347 C525.857,262.375 525.707,262.341 526.025,262.477 L526.03,262.468 L526.107,262.513 L526.724,262.874 L526.719,262.883 C526.738,262.891 526.758,262.899 526.777,262.907 C526.777,262.908 526.778,262.908 526.778,262.909 L526.778,262.908 L527.788,263.601 L528.327,262.671 L529.932,259.773 L531.499,256.506 L531.578,256.285 L530.63,255.63 L528.966,254.654 L528.971,254.645 L528.951,254.637 L528.948,254.643 L527.437,253.707 L526.117,253.285 C526.108,253.335 526.116,253.3 526.079,253.386 L526.093,253.391 L525.22,256.007 L525.206,256.002 L525.139,256.165 L525.147,256.17 L523.856,258.437 L523.847,258.432 C523.818,258.502 523.837,258.475 523.796,258.517 L523.802,258.521 L522.368,260.496 L522.363,260.492 L522.185,260.672 L522.19,260.679 L520.35,262.104 L520.345,262.097 C520.287,262.156 520.323,262.129 520.229,262.169 L520.235,262.18 L518.584,263.091 L518.579,263.08 C518.303,263.197 518.424,263.174 518.227,263.194 L518.227,263.198 L516.503,263.336 L516.503,263.332 L516.433,263.339 C515.939,263.339 515.539,262.933 515.539,262.433 C515.559,261.955 515.889,261.583 516.363,261.534 L516.363,261.53 L517.897,261.407 L519.319,260.622 L521.003,259.318 L522.332,257.488 L523.555,255.342 L524.354,252.948 L524.354,252.901 L524.217,252.874 L523.383,252.813 C523.214,252.885 523.31,252.857 523.089,252.88 L522.991,252.87 L522.991,252.874 L522.189,252.784 L522.189,252.78 C521.707,252.742 521.438,252.331 521.394,251.884 C521.394,251.383 521.794,250.978 522.288,250.978 L523.089,250.978 L523.153,250.984 L523.153,250.98 L524.369,251.068 L524.377,249.99 L524.337,246.666 L524.082,243.043 L524.042,242.812 L522.898,242.725 L520.975,242.723 L520.975,242.723 L520.954,242.721 L520.954,242.723 L519.184,242.678 L517.823,242.983 L517.863,243.08 C517.863,243.082 517.864,243.083 517.864,243.085 L517.864,243.085 L518.397,245.788 C518.398,245.789 518.398,245.788 518.398,245.79 L518.399,245.793 L518.398,245.793 L518.416,245.971 L518.416,248.589 L518.406,248.688 L518.41,248.689 L518.143,251.126 L518.139,251.126 C518.125,251.266 518.141,251.183 518.064,251.368 L518.08,251.375 L517.189,253.541 L517.174,253.535 L517.121,253.661 L517.127,253.665 L516.147,255.29 L516.141,255.286 C515.98,255.518 516.077,255.442 515.878,255.545 L515.891,255.564 L514.465,256.557 L514.465,256.556 C514.194,256.697 514.2,256.692 513.959,256.717 C513.465,256.717 513.065,256.311 513.065,255.811 C513.066,255.458 513.224,255.298 513.454,255.065 L513.453,255.064 L513.459,255.06 C513.459,255.06 513.459,255.06 513.46,255.059 L514.721,254.181 L515.566,252.78 L516.381,250.797 L516.628,248.539 L516.628,246.06 L516.139,243.583 L516.117,243.542 L515.984,243.588 L515.237,243.956 C515.026,244.17 515.139,244.099 514.916,244.194 L514.922,244.21 L514.184,244.538 L514.177,244.522 C513.95,244.619 514.067,244.589 513.825,244.614 C513.331,244.614 512.931,244.208 512.931,243.708 C512.948,243.404 513.084,243.06 513.382,242.933 L513.383,242.932 L513.378,242.924 L513.455,242.879 L514.072,242.517 L514.077,242.526 L514.135,242.501 L514.129,242.487 L515.225,241.947 L514.7,241.009 L513.026,238.151 L511.018,235.143 L510.869,234.963 L509.835,235.467 L508.169,236.44 L508.164,236.431 L508.144,236.439 L508.15,236.45 L506.596,237.308 L505.567,238.263 L505.642,238.339 L505.653,238.33 L507.452,240.404 L507.441,240.414 C507.537,240.511 507.507,240.46 507.546,240.554 L507.555,240.549 L508.846,242.816 L508.838,242.821 L508.876,242.913 L508.891,242.906 L509.862,245.152 L509.847,245.159 C509.928,245.354 509.913,245.27 509.926,245.4 L509.93,245.399 L510.227,247.727 L510.223,247.727 L510.235,247.843 L510.232,247.866 L510.234,247.866 L510.188,249.77 L510.186,249.77 C510.162,250.002 510.19,249.88 510.086,250.13 L510.101,250.137 L509.356,251.719 L509.342,251.712 C509.222,252.06 508.884,252.201 508.55,252.235 C508.056,252.235 507.656,251.83 507.656,251.329 C507.681,251.075 507.651,251.203 507.757,250.946 L507.743,250.939 L508.405,249.531 L508.446,247.89 L508.173,245.76 L507.273,243.679 L506.051,241.533 L504.405,239.635 L504.365,239.611 L504.273,239.718 L503.821,240.395 C503.811,240.539 503.757,240.688 503.655,240.791 L503.66,240.794 L503.182,241.453 L503.177,241.449 C502.997,241.7 502.754,241.792 502.462,241.822 C501.969,241.822 501.569,241.416 501.569,240.916 C501.596,240.638 501.563,240.79 501.697,240.468 L501.688,240.463 L501.733,240.385 L502.089,239.759 L502.098,239.764 C502.106,239.745 502.114,239.725 502.122,239.706 C502.123,239.706 502.123,239.705 502.123,239.705 L502.123,239.705 L502.806,238.682 L501.89,238.135 L499.029,236.509 L495.805,234.921 L495.588,234.84 z M532.201,273.478 L529.291,275.473 L529.291,275.473 C529.291,275.473 529.29,275.474 529.29,275.474 C529.274,275.481 529.258,275.488 529.242,275.495 L529.247,275.502 L526.396,277.217 L526.392,277.21 L526.375,277.217 L526.38,277.226 L525.158,277.928 L525.204,278.065 L525.19,278.069 L525.228,278.16 L525.23,278.159 L525.233,278.172 C525.233,278.173 525.233,278.172 525.233,278.173 L525.613,279.916 L525.611,279.916 C525.64,279.985 525.616,279.924 525.635,280.111 L525.632,280.134 L525.634,280.134 L525.588,282.026 L525.585,283.998 L525.585,283.998 L525.579,284.064 L525.583,284.065 L525.529,284.798 L526.893,284.555 L529.875,283.318 L531.782,281.433 L532.872,279.52 L533.462,277.563 L532.823,275.145 L532.201,273.478 z M473.796,273.071 L473.322,274.391 L472.888,277.626 L473.545,280.242 L474.635,282.155 L476.012,283.652 L478.398,284.3 L480.133,284.587 L479.883,281.036 L479.887,281.035 L479.882,280.982 L479.881,280.982 L479.841,277.623 L479.842,277.623 L479.841,277.612 L479.841,277.605 L479.841,277.605 L479.852,276.181 L479.712,276.153 L479.712,276.153 C479.677,276.149 479.709,276.153 479.622,276.116 L479.618,276.128 L477.926,275.587 L477.93,275.574 L477.733,275.49 L477.729,275.496 L476.135,274.508 L474.452,273.521 L474.456,273.512 C474.398,273.488 474.414,273.503 474.396,273.485 L474.396,273.485 L473.796,273.071 z M533.064,257.386 L531.528,260.588 L531.514,260.582 L531.494,260.63 L531.504,260.636 L529.882,263.566 L529.872,263.56 L529.865,263.577 L529.873,263.581 L529.16,264.808 L529.267,264.904 L529.258,264.915 L529.325,264.983 L529.337,264.972 L530.535,266.299 L530.524,266.31 C530.637,266.425 530.6,266.363 530.65,266.484 L530.661,266.478 L531.554,268.141 L532.525,269.849 L532.516,269.854 L532.541,269.915 L532.556,269.908 L532.87,270.57 L533.932,269.668 L535.905,267.086 L536.626,264.487 L536.626,262.278 L536.172,260.285 L534.425,258.514 L533.064,257.386 z M473.135,257.029 L472.073,257.932 L470.101,260.514 L469.38,263.112 L469.38,265.322 L469.834,267.315 L471.581,269.085 L472.941,270.214 L474.477,267.011 L474.491,267.018 L474.511,266.97 L474.502,266.964 L476.124,264.034 L476.134,264.04 L476.141,264.023 L476.133,264.018 L476.845,262.791 L476.738,262.696 L476.748,262.685 L476.68,262.617 L476.669,262.627 L475.47,261.301 L475.482,261.29 C475.369,261.175 475.406,261.237 475.356,261.116 L475.345,261.122 L474.451,259.46 L473.481,257.751 L473.489,257.746 L473.464,257.685 L473.45,257.692 L473.135,257.029 z M525.872,243.012 L526.122,246.564 L526.118,246.564 L526.123,246.618 L526.124,246.618 L526.165,249.977 L526.164,249.977 L526.165,249.988 L526.164,249.995 L526.165,249.995 L526.154,251.419 L526.293,251.447 L526.293,251.447 C526.329,251.451 526.297,251.447 526.383,251.484 L526.387,251.471 L528.08,252.013 L528.076,252.026 L528.273,252.11 L528.276,252.104 L529.871,253.091 L531.554,254.079 L531.549,254.087 C531.607,254.112 531.591,254.097 531.609,254.115 L531.61,254.114 L532.209,254.529 L532.684,253.209 L533.118,249.974 L532.46,247.358 L531.37,245.445 L529.994,243.948 L527.608,243.3 L525.872,243.012 z M480.477,242.802 L479.112,243.045 L476.13,244.282 L474.224,246.167 L473.134,248.08 L472.543,250.037 L473.183,252.455 L473.804,254.122 L476.715,252.126 L476.715,252.127 C476.715,252.126 476.715,252.126 476.716,252.126 C476.732,252.119 476.747,252.112 476.763,252.105 L476.759,252.098 L479.609,250.383 L479.614,250.39 L479.63,250.383 L479.625,250.373 L480.847,249.672 L480.801,249.535 L480.815,249.53 L480.778,249.44 L480.775,249.44 L480.773,249.428 C480.772,249.427 480.773,249.427 480.772,249.427 L480.392,247.684 L480.394,247.684 C480.366,247.615 480.39,247.676 480.371,247.489 L480.373,247.466 L480.371,247.466 L480.418,245.574 L480.42,243.602 L480.42,243.602 L480.427,243.536 L480.423,243.535 L480.477,242.802 z M516.583,232.931 L514.197,233.579 L512.553,234.209 L514.521,237.158 L514.521,237.158 C514.521,237.159 514.522,237.159 514.522,237.159 C514.529,237.175 514.536,237.191 514.542,237.208 L514.549,237.203 L516.242,240.092 L516.235,240.096 L516.242,240.113 L516.251,240.108 L516.943,241.346 L517.078,241.3 L517.083,241.314 L517.172,241.276 L517.172,241.274 L517.184,241.271 C517.185,241.271 517.184,241.271 517.185,241.271 L518.905,240.885 L518.905,240.887 C518.973,240.858 518.913,240.883 519.098,240.864 L519.12,240.866 L519.12,240.864 L520.987,240.911 L522.933,240.914 L522.933,240.914 L522.998,240.92 L522.999,240.916 L523.722,240.971 L523.482,239.588 L522.262,236.566 L520.402,234.634 L518.514,233.529 L516.583,232.931 z M489.36,233.28 L486.779,233.946 L484.891,235.051 L483.414,236.446 L482.775,238.864 L482.491,240.623 L485.996,240.37 L485.996,240.374 L486.048,240.368 L486.048,240.367 L489.363,240.326 L489.363,240.327 L489.374,240.326 L489.381,240.327 L489.381,240.326 L490.786,240.338 L490.814,240.196 L490.814,240.196 C490.818,240.16 490.814,240.193 490.85,240.105 L490.838,240.101 L491.372,238.386 L491.385,238.39 L491.468,238.19 L491.462,238.186 L492.436,236.57 L493.411,234.865 L493.419,234.87 C493.444,234.811 493.429,234.827 493.446,234.809 L493.446,234.808 L493.855,234.201 L492.553,233.72 L489.36,233.28 z M503.681,229.725 L501.501,229.725 L499.534,230.185 L497.787,231.955 L496.674,233.334 L499.834,234.891 L499.827,234.905 L499.875,234.925 L499.881,234.916 L502.772,236.56 L502.766,236.57 L502.783,236.577 L502.787,236.569 L503.998,237.29 L504.092,237.182 L504.103,237.192 L504.17,237.123 L504.16,237.112 L505.469,235.897 L505.479,235.909 C505.593,235.794 505.532,235.832 505.651,235.781 L505.645,235.77 L507.287,234.864 L508.971,233.881 L508.976,233.89 L509.036,233.864 L509.03,233.85 L509.684,233.531 L508.793,232.455 L506.245,230.456 L503.681,229.725 z" fill="#FFFFFF"/>
      <g>
        <g>
          <path d="M409.507,325.44 Q410.325,327.608 411.792,330.944 Q413.258,334.281 414.076,336.392 Q414.895,338.502 415.014,338.502 Q415.134,338.502 417.299,333.136 Q419.465,327.77 420.198,325.44 L427.103,325.44 Q427.308,325.814 427.308,326.163 Q427.308,326.475 427.138,326.598 Q426.967,326.723 426.541,326.723 L425.415,326.723 Q425.347,329.015 425.517,334.219 Q425.688,339.424 425.859,341.154 L427.512,341.154 Q427.735,341.528 427.735,341.877 Q427.735,342.188 427.564,342.312 Q427.394,342.436 426.95,342.436 L420.266,342.436 Q420.044,342.013 420.044,341.653 Q420.044,341.391 420.223,341.273 Q420.402,341.154 420.811,341.154 L421.818,341.154 Q421.955,338.988 421.699,327.98 Q420.369,331.716 418.629,335.588 Q416.89,339.462 416.327,340.171 Q415.764,340.881 414.503,340.881 Q412.695,340.881 412.481,340.78 Q412.269,340.682 410.198,336.429 Q408.125,332.177 406.556,327.919 Q406.506,338.988 406.625,341.154 L408.21,341.154 Q408.416,341.528 408.416,341.877 Q408.416,342.188 408.245,342.312 Q408.075,342.436 407.648,342.436 L401.374,342.436 Q401.169,342.013 401.169,341.653 Q401.169,341.391 401.347,341.273 Q401.527,341.154 401.936,341.154 L403.18,341.154 Q403.368,339.424 403.53,334.219 Q403.692,329.015 403.657,326.723 L401.936,326.723 Q401.731,326.299 401.731,325.939 Q401.731,325.677 401.91,325.559 Q402.089,325.44 402.498,325.44 z" fill="#FFFFFF"/>
          <path d="M409.507,325.44 Q410.325,327.608 411.792,330.944 Q413.258,334.281 414.076,336.392 Q414.895,338.502 415.014,338.502 Q415.134,338.502 417.299,333.136 Q419.465,327.77 420.198,325.44 L427.103,325.44 Q427.308,325.814 427.308,326.163 Q427.308,326.475 427.138,326.598 Q426.967,326.723 426.541,326.723 L425.415,326.723 Q425.347,329.015 425.517,334.219 Q425.688,339.424 425.859,341.154 L427.512,341.154 Q427.735,341.528 427.735,341.877 Q427.735,342.188 427.564,342.312 Q427.394,342.436 426.95,342.436 L420.266,342.436 Q420.044,342.013 420.044,341.653 Q420.044,341.391 420.223,341.273 Q420.402,341.154 420.811,341.154 L421.818,341.154 Q421.955,338.988 421.699,327.98 Q420.369,331.716 418.629,335.588 Q416.89,339.462 416.327,340.171 Q415.764,340.881 414.503,340.881 Q412.695,340.881 412.481,340.78 Q412.269,340.682 410.198,336.429 Q408.125,332.177 406.556,327.919 Q406.506,338.988 406.625,341.154 L408.21,341.154 Q408.416,341.528 408.416,341.877 Q408.416,342.188 408.245,342.312 Q408.075,342.436 407.648,342.436 L401.374,342.436 Q401.169,342.013 401.169,341.653 Q401.169,341.391 401.347,341.273 Q401.527,341.154 401.936,341.154 L403.18,341.154 Q403.368,339.424 403.53,334.219 Q403.692,329.015 403.657,326.723 L401.936,326.723 Q401.731,326.299 401.731,325.939 Q401.731,325.677 401.91,325.559 Q402.089,325.44 402.498,325.44 z" fill="#FFFFFF"/>
        </g>
        <g>
          <path d="M438.528,341.017 Q440.472,341.017 441.342,339.947 Q442.21,338.876 442.21,336.647 Q442.21,334.082 441.316,332.837 Q440.421,331.592 438.238,331.592 Q436.294,331.592 435.424,332.662 Q434.555,333.733 434.555,335.975 Q434.555,338.527 435.451,339.772 Q436.345,341.017 438.528,341.017 z M437.88,342.686 Q434.18,342.686 432.441,341.254 Q430.702,339.822 430.702,336.933 Q430.702,333.608 432.807,331.766 Q434.913,329.923 438.886,329.923 Q442.586,329.923 444.325,331.355 Q446.065,332.787 446.065,335.688 Q446.065,339.001 443.959,340.844 Q441.853,342.686 437.88,342.686 z" fill="#FFFFFF"/>
          <path d="M438.528,341.017 Q440.472,341.017 441.342,339.947 Q442.21,338.876 442.21,336.647 Q442.21,334.082 441.316,332.837 Q440.421,331.592 438.238,331.592 Q436.294,331.592 435.424,332.662 Q434.555,333.733 434.555,335.975 Q434.555,338.527 435.451,339.772 Q436.345,341.017 438.528,341.017 z M437.88,342.686 Q434.18,342.686 432.441,341.254 Q430.702,339.822 430.702,336.933 Q430.702,333.608 432.807,331.766 Q434.913,329.923 438.886,329.923 Q442.586,329.923 444.325,331.355 Q446.065,332.787 446.065,335.688 Q446.065,339.001 443.959,340.844 Q441.853,342.686 437.88,342.686 z" fill="#FFFFFF"/>
        </g>
        <g>
          <path d="M449.116,330.733 Q449.116,330.396 449.475,330.303 Q449.833,330.21 453.994,330.11 Q454.096,330.683 453.994,331.642 Q455.887,330.707 457.634,330.347 Q459.382,329.985 460.814,329.985 Q461.291,329.985 461.453,330.066 Q461.616,330.147 461.616,330.422 Q461.616,330.956 461.385,331.567 Q461.156,332.177 460.832,332.338 Q460.507,332.5 459.757,332.588 Q459.008,332.675 458.879,332.625 Q458.752,332.575 458.102,331.941 Q456.585,331.941 455.648,332.643 Q454.71,333.347 454.71,335.476 Q454.727,339.3 454.846,341.154 L457.251,341.154 Q457.455,341.478 457.455,341.852 Q457.455,342.188 457.268,342.312 Q457.079,342.436 456.552,342.436 L449.339,342.436 Q449.116,342.039 449.116,341.69 Q449.116,341.416 449.305,341.285 Q449.492,341.154 449.919,341.154 L451.095,341.154 Q451.231,339.3 451.231,336.298 Q451.231,332.625 450.84,332.039 Q450.446,331.455 449.339,331.455 Q449.116,331.107 449.116,330.733 z" fill="#FFFFFF"/>
          <path d="M449.116,330.733 Q449.116,330.396 449.475,330.303 Q449.833,330.21 453.994,330.11 Q454.096,330.683 453.994,331.642 Q455.887,330.707 457.634,330.347 Q459.382,329.985 460.814,329.985 Q461.291,329.985 461.453,330.066 Q461.616,330.147 461.616,330.422 Q461.616,330.956 461.385,331.567 Q461.156,332.177 460.832,332.338 Q460.507,332.5 459.757,332.588 Q459.008,332.675 458.879,332.625 Q458.752,332.575 458.102,331.941 Q456.585,331.941 455.648,332.643 Q454.71,333.347 454.71,335.476 Q454.727,339.3 454.846,341.154 L457.251,341.154 Q457.455,341.478 457.455,341.852 Q457.455,342.188 457.268,342.312 Q457.079,342.436 456.552,342.436 L449.339,342.436 Q449.116,342.039 449.116,341.69 Q449.116,341.416 449.305,341.285 Q449.492,341.154 449.919,341.154 L451.095,341.154 Q451.231,339.3 451.231,336.298 Q451.231,332.625 450.84,332.039 Q450.446,331.455 449.339,331.455 Q449.116,331.107 449.116,330.733 z" fill="#FFFFFF"/>
        </g>
        <g>
          <path d="M468.538,331.579 Q470.227,330.758 471.873,330.372 Q473.518,329.985 474.814,329.985 Q477.082,329.985 478.232,330.751 Q479.383,331.517 479.383,333.672 Q479.383,340.37 479.648,340.769 Q479.912,341.167 480.868,341.154 Q481.054,341.515 481.054,341.877 Q481.054,342.213 480.765,342.325 Q480.474,342.436 479.691,342.436 Q477.32,342.436 476.792,342.393 Q476.263,342.349 476.076,342.132 Q475.888,341.914 475.888,341.403 L475.888,336.037 Q475.888,333.472 475.147,332.625 Q474.404,331.778 472.751,331.778 Q471.335,331.778 470.303,332.364 Q469.273,332.949 469.273,334.468 L469.273,337.095 Q469.273,339.3 469.391,341.154 L471.284,341.154 Q471.488,341.478 471.488,341.852 Q471.488,342.188 471.301,342.312 Q471.114,342.436 470.585,342.436 L463.884,342.436 Q463.662,342.039 463.662,341.69 Q463.662,341.416 463.85,341.285 Q464.037,341.154 464.464,341.154 L465.64,341.154 Q465.776,339.174 465.776,336.298 Q465.776,332.625 465.385,332.039 Q464.992,331.455 463.884,331.455 Q463.662,331.107 463.662,330.733 Q463.662,330.396 464.02,330.303 Q464.378,330.21 468.538,330.11 Q468.641,330.683 468.538,331.579 z" fill="#FFFFFF"/>
          <path d="M468.538,331.579 Q470.227,330.758 471.873,330.372 Q473.518,329.985 474.814,329.985 Q477.082,329.985 478.232,330.751 Q479.383,331.517 479.383,333.672 Q479.383,340.37 479.648,340.769 Q479.912,341.167 480.868,341.154 Q481.054,341.515 481.054,341.877 Q481.054,342.213 480.765,342.325 Q480.474,342.436 479.691,342.436 Q477.32,342.436 476.792,342.393 Q476.263,342.349 476.076,342.132 Q475.888,341.914 475.888,341.403 L475.888,336.037 Q475.888,333.472 475.147,332.625 Q474.404,331.778 472.751,331.778 Q471.335,331.778 470.303,332.364 Q469.273,332.949 469.273,334.468 L469.273,337.095 Q469.273,339.3 469.391,341.154 L471.284,341.154 Q471.488,341.478 471.488,341.852 Q471.488,342.188 471.301,342.312 Q471.114,342.436 470.585,342.436 L463.884,342.436 Q463.662,342.039 463.662,341.69 Q463.662,341.416 463.85,341.285 Q464.037,341.154 464.464,341.154 L465.64,341.154 Q465.776,339.174 465.776,336.298 Q465.776,332.625 465.385,332.039 Q464.992,331.455 463.884,331.455 Q463.662,331.107 463.662,330.733 Q463.662,330.396 464.02,330.303 Q464.378,330.21 468.538,330.11 Q468.641,330.683 468.538,331.579 z" fill="#FFFFFF"/>
        </g>
        <g>
          <path d="M487.313,327.98 Q486.204,327.98 485.675,327.644 Q485.146,327.309 485.146,326.673 Q485.164,325.989 485.829,325.578 Q486.495,325.167 487.704,325.167 Q488.898,325.167 489.41,325.522 Q489.922,325.877 489.922,326.475 Q489.922,327.147 489.29,327.563 Q488.659,327.98 487.313,327.98 z M491.541,341.154 Q491.763,341.478 491.763,341.852 Q491.763,342.188 491.575,342.312 Q491.388,342.436 490.842,342.436 L484.142,342.436 Q483.936,342.039 483.936,341.69 Q483.936,341.416 484.115,341.285 Q484.295,341.154 484.737,341.154 L485.999,341.154 Q486.119,339.424 486.119,337.095 Q486.119,334.256 486.059,333.303 Q485.999,332.351 485.778,331.991 Q485.556,331.629 485.155,331.542 Q484.755,331.455 484.157,331.455 Q483.936,331.193 483.936,330.844 Q483.936,330.334 484.601,330.222 Q485.266,330.11 487.175,330.11 Q488.523,330.11 489.001,330.204 Q489.478,330.297 489.546,330.552 Q489.614,330.807 489.614,331.43 L489.614,337.095 Q489.614,339.424 489.733,341.154 z" fill="#FFFFFF"/>
          <path d="M487.313,327.98 Q486.204,327.98 485.675,327.644 Q485.146,327.309 485.146,326.673 Q485.164,325.989 485.829,325.578 Q486.495,325.167 487.704,325.167 Q488.898,325.167 489.41,325.522 Q489.922,325.877 489.922,326.475 Q489.922,327.147 489.29,327.563 Q488.659,327.98 487.313,327.98 z M491.541,341.154 Q491.763,341.478 491.763,341.852 Q491.763,342.188 491.575,342.312 Q491.388,342.436 490.842,342.436 L484.142,342.436 Q483.936,342.039 483.936,341.69 Q483.936,341.416 484.115,341.285 Q484.295,341.154 484.737,341.154 L485.999,341.154 Q486.119,339.424 486.119,337.095 Q486.119,334.256 486.059,333.303 Q485.999,332.351 485.778,331.991 Q485.556,331.629 485.155,331.542 Q484.755,331.455 484.157,331.455 Q483.936,331.193 483.936,330.844 Q483.936,330.334 484.601,330.222 Q485.266,330.11 487.175,330.11 Q488.523,330.11 489.001,330.204 Q489.478,330.297 489.546,330.552 Q489.614,330.807 489.614,331.43 L489.614,337.095 Q489.614,339.424 489.733,341.154 z" fill="#FFFFFF"/>
        </g>
        <g>
          <path d="M499.368,331.579 Q501.056,330.758 502.7,330.372 Q504.346,329.985 505.643,329.985 Q507.911,329.985 509.062,330.751 Q510.212,331.517 510.212,333.672 Q510.212,340.37 510.476,340.769 Q510.741,341.167 511.695,341.154 Q511.883,341.515 511.883,341.877 Q511.883,342.213 511.593,342.325 Q511.303,342.436 510.518,342.436 Q508.15,342.436 507.62,342.393 Q507.091,342.349 506.905,342.132 Q506.717,341.914 506.717,341.403 L506.717,336.037 Q506.717,333.472 505.974,332.625 Q505.233,331.778 503.579,331.778 Q502.164,331.778 501.132,332.364 Q500.1,332.949 500.1,334.468 L500.1,337.095 Q500.1,339.3 500.22,341.154 L502.112,341.154 Q502.318,341.478 502.318,341.852 Q502.318,342.188 502.13,342.312 Q501.943,342.436 501.414,342.436 L494.713,342.436 Q494.491,342.039 494.491,341.69 Q494.491,341.416 494.678,341.285 Q494.866,341.154 495.292,341.154 L496.469,341.154 Q496.605,339.174 496.605,336.298 Q496.605,332.625 496.213,332.039 Q495.82,331.455 494.713,331.455 Q494.491,331.107 494.491,330.733 Q494.491,330.396 494.849,330.303 Q495.207,330.21 499.368,330.11 Q499.47,330.683 499.368,331.579 z" fill="#FFFFFF"/>
          <path d="M499.368,331.579 Q501.056,330.758 502.7,330.372 Q504.346,329.985 505.643,329.985 Q507.911,329.985 509.062,330.751 Q510.212,331.517 510.212,333.672 Q510.212,340.37 510.476,340.769 Q510.741,341.167 511.695,341.154 Q511.883,341.515 511.883,341.877 Q511.883,342.213 511.593,342.325 Q511.303,342.436 510.518,342.436 Q508.15,342.436 507.62,342.393 Q507.091,342.349 506.905,342.132 Q506.717,341.914 506.717,341.403 L506.717,336.037 Q506.717,333.472 505.974,332.625 Q505.233,331.778 503.579,331.778 Q502.164,331.778 501.132,332.364 Q500.1,332.949 500.1,334.468 L500.1,337.095 Q500.1,339.3 500.22,341.154 L502.112,341.154 Q502.318,341.478 502.318,341.852 Q502.318,342.188 502.13,342.312 Q501.943,342.436 501.414,342.436 L494.713,342.436 Q494.491,342.039 494.491,341.69 Q494.491,341.416 494.678,341.285 Q494.866,341.154 495.292,341.154 L496.469,341.154 Q496.605,339.174 496.605,336.298 Q496.605,332.625 496.213,332.039 Q495.82,331.455 494.713,331.455 Q494.491,331.107 494.491,330.733 Q494.491,330.396 494.849,330.303 Q495.207,330.21 499.368,330.11 Q499.47,330.683 499.368,331.579 z" fill="#FFFFFF"/>
        </g>
        <g>
          <path d="M521.96,331.343 Q520.34,331.343 519.557,332.009 Q518.772,332.675 518.772,334.418 Q518.772,335.912 519.531,336.597 Q520.289,337.282 521.909,337.282 Q523.632,337.282 524.451,336.666 Q525.269,336.049 525.269,334.343 Q525.269,332.837 524.442,332.089 Q523.615,331.343 521.96,331.343 z M527.758,331.355 Q528.713,332.6 528.713,334.007 Q528.713,336.111 526.863,337.407 Q525.013,338.701 521.04,338.701 Q519.25,338.701 518.721,338.982 Q518.192,339.262 518.192,339.797 Q518.192,340.445 518.909,340.732 Q519.625,341.017 524.143,341.017 Q528.594,341.017 529.916,341.683 Q531.237,342.349 531.237,343.657 Q531.237,345.624 528.432,346.77 Q525.627,347.915 519.745,347.915 Q516.88,347.915 515.907,347.348 Q514.936,346.783 514.936,345.761 Q514.936,345.001 515.481,344.21 Q516.027,343.421 516.998,342.686 Q516.163,342.436 515.66,341.945 Q515.157,341.453 515.157,340.732 Q515.157,339.984 515.806,339.355 Q516.453,338.726 517.783,338.253 Q516.692,337.93 516.019,337.095 Q515.345,336.26 515.345,334.916 Q515.345,332.725 517.186,331.324 Q519.028,329.923 522.728,329.923 Q524.774,329.923 526.496,330.409 Q528.713,329.674 529.14,329.674 Q531.202,329.674 531.39,329.755 Q531.578,329.836 531.578,330.023 Q531.578,330.347 531.178,330.951 Q530.776,331.554 530.428,331.554 Q530.078,331.554 528.167,330.994 z M519.198,342.81 Q518.601,343.246 518.286,343.795 Q517.971,344.342 517.971,344.903 Q517.971,345.749 518.67,346.123 Q519.369,346.495 521.466,346.495 Q524.536,346.495 526.096,345.961 Q527.656,345.425 527.656,344.404 Q527.656,343.507 526.513,343.159 Q525.372,342.81 519.198,342.81 z" fill="#FFFFFF"/>
          <path d="M521.96,331.343 Q520.34,331.343 519.557,332.009 Q518.772,332.675 518.772,334.418 Q518.772,335.912 519.531,336.597 Q520.289,337.282 521.909,337.282 Q523.632,337.282 524.451,336.666 Q525.269,336.049 525.269,334.343 Q525.269,332.837 524.442,332.089 Q523.615,331.343 521.96,331.343 z M527.758,331.355 Q528.713,332.6 528.713,334.007 Q528.713,336.111 526.863,337.407 Q525.013,338.701 521.04,338.701 Q519.25,338.701 518.721,338.982 Q518.192,339.262 518.192,339.797 Q518.192,340.445 518.909,340.732 Q519.625,341.017 524.143,341.017 Q528.594,341.017 529.916,341.683 Q531.237,342.349 531.237,343.657 Q531.237,345.624 528.432,346.77 Q525.627,347.915 519.745,347.915 Q516.88,347.915 515.907,347.348 Q514.936,346.783 514.936,345.761 Q514.936,345.001 515.481,344.21 Q516.027,343.421 516.998,342.686 Q516.163,342.436 515.66,341.945 Q515.157,341.453 515.157,340.732 Q515.157,339.984 515.806,339.355 Q516.453,338.726 517.783,338.253 Q516.692,337.93 516.019,337.095 Q515.345,336.26 515.345,334.916 Q515.345,332.725 517.186,331.324 Q519.028,329.923 522.728,329.923 Q524.774,329.923 526.496,330.409 Q528.713,329.674 529.14,329.674 Q531.202,329.674 531.39,329.755 Q531.578,329.836 531.578,330.023 Q531.578,330.347 531.178,330.951 Q530.776,331.554 530.428,331.554 Q530.078,331.554 528.167,330.994 z M519.198,342.81 Q518.601,343.246 518.286,343.795 Q517.971,344.342 517.971,344.903 Q517.971,345.749 518.67,346.123 Q519.369,346.495 521.466,346.495 Q524.536,346.495 526.096,345.961 Q527.656,345.425 527.656,344.404 Q527.656,343.507 526.513,343.159 Q525.372,342.81 519.198,342.81 z" fill="#FFFFFF"/>
        </g>
        <g>
          <path d="M558.195,325.44 Q559.166,325.44 559.525,325.64 Q559.883,325.839 559.883,326.437 Q559.883,327.196 559.236,328.006 Q556.013,327.047 550.368,327.047 L548.885,327.047 Q548.766,328.454 548.766,333.011 L557.189,333.011 Q557.41,333.496 557.41,334.032 Q557.41,334.381 557.24,334.5 Q557.069,334.618 556.575,334.618 L548.766,334.618 Q548.782,339.723 548.885,341.154 L551.63,341.154 Q551.835,341.528 551.835,341.877 Q551.835,342.188 551.665,342.312 Q551.494,342.436 551.068,342.436 L543.053,342.436 Q542.832,342.013 542.832,341.653 Q542.832,341.391 543.011,341.273 Q543.19,341.154 543.599,341.154 L544.861,341.154 Q544.98,339.424 544.98,332.276 Q544.98,328.454 544.861,326.723 L543.053,326.723 Q542.832,326.299 542.832,325.939 Q542.832,325.677 543.011,325.559 Q543.19,325.44 543.599,325.44 z" fill="#FFFFFF"/>
          <path d="M558.195,325.44 Q559.166,325.44 559.525,325.64 Q559.883,325.839 559.883,326.437 Q559.883,327.196 559.236,328.006 Q556.013,327.047 550.368,327.047 L548.885,327.047 Q548.766,328.454 548.766,333.011 L557.189,333.011 Q557.41,333.496 557.41,334.032 Q557.41,334.381 557.24,334.5 Q557.069,334.618 556.575,334.618 L548.766,334.618 Q548.782,339.723 548.885,341.154 L551.63,341.154 Q551.835,341.528 551.835,341.877 Q551.835,342.188 551.665,342.312 Q551.494,342.436 551.068,342.436 L543.053,342.436 Q542.832,342.013 542.832,341.653 Q542.832,341.391 543.011,341.273 Q543.19,341.154 543.599,341.154 L544.861,341.154 Q544.98,339.424 544.98,332.276 Q544.98,328.454 544.861,326.723 L543.053,326.723 Q542.832,326.299 542.832,325.939 Q542.832,325.677 543.011,325.559 Q543.19,325.44 543.599,325.44 z" fill="#FFFFFF"/>
        </g>
        <g>
          <path d="M575.161,337.432 Q575.161,339.934 575.435,340.507 Q575.707,341.079 576.525,341.017 Q576.729,341.316 576.729,341.603 Q576.729,342.064 575.758,342.312 Q574.787,342.562 573.865,342.562 Q573.269,342.562 572.996,342.387 Q572.723,342.213 572.143,341.441 Q570.779,342.013 569.32,342.349 Q567.863,342.686 566.26,342.686 Q564.146,342.686 562.978,341.833 Q561.81,340.98 561.81,338.701 Q561.81,334.256 561.751,333.303 Q561.69,332.351 561.469,331.991 Q561.248,331.629 560.889,331.542 Q560.531,331.455 560.105,331.455 Q559.883,331.193 559.883,330.87 Q559.883,330.433 560.719,330.272 Q561.554,330.11 563.037,330.11 Q564.214,330.11 564.649,330.215 Q565.084,330.322 565.195,330.564 Q565.305,330.807 565.305,332.201 L565.305,336.896 Q565.305,339.448 566.081,340.233 Q566.858,341.017 568.238,341.017 Q569.211,341.017 570.131,340.719 Q571.052,340.42 571.367,339.884 Q571.682,339.349 571.682,337.818 Q571.682,334.256 571.64,333.335 Q571.597,332.413 571.402,332.021 Q571.205,331.629 570.882,331.542 Q570.557,331.455 570.046,331.455 Q569.825,331.193 569.825,330.87 Q569.825,330.433 570.702,330.272 Q571.581,330.11 572.893,330.11 Q574.07,330.11 574.505,330.215 Q574.94,330.322 575.05,330.595 Q575.161,330.87 575.161,332.264 z" fill="#FFFFFF"/>
          <path d="M575.161,337.432 Q575.161,339.934 575.435,340.507 Q575.707,341.079 576.525,341.017 Q576.729,341.316 576.729,341.603 Q576.729,342.064 575.758,342.312 Q574.787,342.562 573.865,342.562 Q573.269,342.562 572.996,342.387 Q572.723,342.213 572.143,341.441 Q570.779,342.013 569.32,342.349 Q567.863,342.686 566.26,342.686 Q564.146,342.686 562.978,341.833 Q561.81,340.98 561.81,338.701 Q561.81,334.256 561.751,333.303 Q561.69,332.351 561.469,331.991 Q561.248,331.629 560.889,331.542 Q560.531,331.455 560.105,331.455 Q559.883,331.193 559.883,330.87 Q559.883,330.433 560.719,330.272 Q561.554,330.11 563.037,330.11 Q564.214,330.11 564.649,330.215 Q565.084,330.322 565.195,330.564 Q565.305,330.807 565.305,332.201 L565.305,336.896 Q565.305,339.448 566.081,340.233 Q566.858,341.017 568.238,341.017 Q569.211,341.017 570.131,340.719 Q571.052,340.42 571.367,339.884 Q571.682,339.349 571.682,337.818 Q571.682,334.256 571.64,333.335 Q571.597,332.413 571.402,332.021 Q571.205,331.629 570.882,331.542 Q570.557,331.455 570.046,331.455 Q569.825,331.193 569.825,330.87 Q569.825,330.433 570.702,330.272 Q571.581,330.11 572.893,330.11 Q574.07,330.11 574.505,330.215 Q574.94,330.322 575.05,330.595 Q575.161,330.87 575.161,332.264 z" fill="#FFFFFF"/>
        </g>
        <g>
          <path d="M587.165,331.592 Q585.46,331.592 584.574,332.482 Q583.686,333.373 583.602,335.264 L585.358,335.264 Q588.154,335.264 589.169,335.184 Q590.183,335.102 590.345,334.915 Q590.507,334.729 590.507,334.219 Q590.507,332.986 589.654,332.29 Q588.803,331.592 587.165,331.592 z M587.813,329.923 Q590.985,329.923 592.519,331.019 Q594.054,332.114 594.054,334.63 Q594.054,335.738 593.509,336.174 Q592.963,336.609 591.122,336.609 L583.585,336.609 Q583.618,338.639 584.701,339.797 Q585.784,340.956 588.529,340.956 Q591.086,340.956 593.286,339.984 Q594.021,340.52 594.021,341.117 Q594.021,341.952 592.136,342.288 Q590.253,342.623 587.882,342.623 Q583.517,342.623 581.615,341.273 Q579.714,339.922 579.714,336.721 Q579.714,333.571 581.853,331.747 Q583.994,329.923 587.813,329.923 z" fill="#FFFFFF"/>
          <path d="M587.165,331.592 Q585.46,331.592 584.574,332.482 Q583.686,333.373 583.602,335.264 L585.358,335.264 Q588.154,335.264 589.169,335.184 Q590.183,335.102 590.345,334.915 Q590.507,334.729 590.507,334.219 Q590.507,332.986 589.654,332.29 Q588.803,331.592 587.165,331.592 z M587.813,329.923 Q590.985,329.923 592.519,331.019 Q594.054,332.114 594.054,334.63 Q594.054,335.738 593.509,336.174 Q592.963,336.609 591.122,336.609 L583.585,336.609 Q583.618,338.639 584.701,339.797 Q585.784,340.956 588.529,340.956 Q591.086,340.956 593.286,339.984 Q594.021,340.52 594.021,341.117 Q594.021,341.952 592.136,342.288 Q590.253,342.623 587.882,342.623 Q583.517,342.623 581.615,341.273 Q579.714,339.922 579.714,336.721 Q579.714,333.571 581.853,331.747 Q583.994,329.923 587.813,329.923 z" fill="#FFFFFF"/>
        </g>
        <g>
          <path d="M599.118,335.302 Q599.118,330.035 599.051,328.598 Q598.983,327.159 598.803,326.723 Q598.624,326.288 598.215,326.163 Q597.806,326.039 597.141,326.039 Q596.919,325.652 596.919,325.28 Q596.919,324.893 597.354,324.794 Q597.789,324.694 600.159,324.694 Q601.505,324.694 601.983,324.787 Q602.461,324.88 602.528,325.136 Q602.596,325.392 602.596,326.014 L602.596,336.436 Q602.614,339.424 602.733,341.154 L604.626,341.154 Q604.831,341.478 604.831,341.852 Q604.831,342.188 604.643,342.312 Q604.456,342.436 603.927,342.436 L597.141,342.436 Q596.919,342.039 596.919,341.69 Q596.919,341.416 597.107,341.285 Q597.295,341.154 597.721,341.154 L598.983,341.154 Q599.118,339.424 599.118,335.302 z" fill="#FFFFFF"/>
          <path d="M599.118,335.302 Q599.118,330.035 599.051,328.598 Q598.983,327.159 598.803,326.723 Q598.624,326.288 598.215,326.163 Q597.806,326.039 597.141,326.039 Q596.919,325.652 596.919,325.28 Q596.919,324.893 597.354,324.794 Q597.789,324.694 600.159,324.694 Q601.505,324.694 601.983,324.787 Q602.461,324.88 602.528,325.136 Q602.596,325.392 602.596,326.014 L602.596,336.436 Q602.614,339.424 602.733,341.154 L604.626,341.154 Q604.831,341.478 604.831,341.852 Q604.831,342.188 604.643,342.312 Q604.456,342.436 603.927,342.436 L597.141,342.436 Q596.919,342.039 596.919,341.69 Q596.919,341.416 597.107,341.285 Q597.295,341.154 597.721,341.154 L598.983,341.154 Q599.118,339.424 599.118,335.302 z" fill="#FFFFFF"/>
        </g>
      </g>
    </g>
  </g>
</svg>
