<?xml version="1.0" encoding="UTF-8"?>
<!DOCTYPE svg PUBLIC "-//W3C//DTD SVG 1.1//EN" "http://www.w3.org/Graphics/SVG/1.1/DTD/svg11.dtd">
<svg version="1.1" xmlns="http://www.w3.org/2000/svg" xmlns:xlink="http://www.w3.org/1999/xlink" x="0" y="0" width="889" height="263" viewBox="0, 0, 889, 263">
  <g id="Layer_1" transform="translate(-60.911, -159.081)">
    <g>
      <path d="M62.411,160.581 L949.411,160.581 L949.411,421.581 L62.411,421.581 L62.411,160.581 z" fill="#000000"/>
      <path d="M62.411,160.581 L949.411,160.581 L949.411,421.581 L62.411,421.581 L62.411,160.581 z" fill-opacity="0" stroke="#000000" stroke-width="1"/>
    </g>
    <g>
      <path d="M512.456,211.536 C512.833,211.574 512.627,211.529 513.063,211.713 L513.07,211.701 L515.721,213.231 L519.326,215.313 L519.319,215.325 C519.409,215.362 519.378,215.338 519.423,215.382 L519.426,215.377 L523.529,218.311 L523.525,218.316 L523.689,218.48 L523.705,218.464 L525.138,219.972 C525.507,219.817 525.325,219.86 525.678,219.824 L525.699,219.826 L525.699,219.824 L526.413,219.836 L526.413,219.838 C526.691,219.866 526.569,219.832 526.782,219.921 L526.788,219.902 L528.02,220.322 L528.014,220.341 L528.072,220.365 L528.081,220.344 L530.104,221.155 L530.096,221.176 L530.167,221.206 L530.176,221.187 L532.322,222.21 L532.312,222.229 C532.549,222.301 532.749,222.482 532.845,222.711 L532.857,222.704 L534.388,225.355 L536.469,228.96 L536.457,228.967 L536.503,229.076 L536.524,229.066 L538.609,233.659 L538.589,233.668 L538.678,233.881 L538.685,233.879 L539.168,235.886 C539.484,235.917 539.292,235.88 539.727,236.063 L539.732,236.054 L540.344,236.421 L540.339,236.43 C540.496,236.497 540.384,236.44 540.622,236.679 L540.637,236.666 L541.494,237.645 L541.479,237.658 L541.524,237.704 L541.535,237.695 L542.882,239.409 L542.871,239.418 L542.927,239.473 L542.928,239.472 L542.935,239.481 C542.935,239.481 542.935,239.481 542.935,239.482 L544.275,241.431 L544.274,241.432 C544.276,241.435 544.279,241.438 544.282,241.44 C544.343,241.587 544.405,241.733 544.466,241.88 L544.491,242.127 L544.491,249.351 L544.479,249.47 L544.486,249.47 L543.996,254.49 L543.99,254.489 C543.973,254.653 543.993,254.578 543.936,254.714 L543.951,254.719 L543.367,256.696 C543.578,256.767 543.681,256.953 543.757,257.133 L543.771,257.126 L544.117,257.75 L544.103,257.758 C544.151,257.871 544.199,257.985 544.247,258.099 C544.247,258.102 544.247,258.105 544.248,258.108 L544.248,258.108 L544.499,259.374 C544.499,259.376 544.499,259.375 544.499,259.378 L544.501,259.385 L544.5,259.385 L544.507,259.449 L544.512,259.449 L544.821,261.606 L544.816,261.607 L544.824,261.685 L544.83,261.684 L545.016,264.054 L545.011,264.055 L545.02,264.151 C544.982,264.528 545.028,264.322 544.844,264.758 L544.856,264.765 L543.325,267.416 L543.313,267.409 L543.313,267.409 L543.325,267.416 L541.244,271.021 L541.232,271.014 C541.194,271.104 541.219,271.073 541.174,271.118 L541.179,271.121 L538.245,275.224 L538.24,275.22 L538.077,275.383 L538.092,275.4 L536.584,276.832 C536.74,277.202 536.697,277.02 536.732,277.373 L536.73,277.394 L536.732,277.394 L536.72,278.107 L536.718,278.107 C536.69,278.386 536.725,278.264 536.636,278.477 L536.655,278.483 L536.235,279.715 L536.216,279.708 L536.191,279.767 L536.213,279.776 L535.401,281.799 L535.38,281.791 L535.35,281.862 L535.37,281.871 L534.347,284.017 L534.327,284.007 C534.255,284.244 534.075,284.444 533.845,284.54 L533.852,284.552 L531.201,286.082 L527.596,288.164 L527.59,288.152 L527.481,288.198 L527.49,288.218 L522.898,290.304 L522.889,290.284 L522.676,290.373 L522.678,290.38 L520.671,290.863 C520.639,291.179 520.676,290.987 520.493,291.421 L520.503,291.427 L520.135,292.039 L520.126,292.034 C520.06,292.191 520.116,292.079 519.878,292.317 L519.891,292.332 L518.912,293.189 L518.899,293.174 L518.853,293.219 L518.862,293.23 L517.147,294.577 L517.139,294.566 L517.083,294.622 L517.084,294.623 L517.076,294.629 C517.076,294.63 517.075,294.63 517.075,294.63 L515.126,295.97 L515.124,295.968 C514.752,296.159 514.761,296.153 514.43,296.186 L507.206,296.186 L507.087,296.174 L507.087,296.18 L502.067,295.691 L502.067,295.685 C501.904,295.668 501.978,295.688 501.842,295.631 L501.838,295.646 L499.86,295.062 C499.79,295.273 499.604,295.375 499.423,295.452 L499.431,295.466 L498.807,295.812 L498.799,295.798 C498.685,295.846 498.572,295.894 498.458,295.942 C498.455,295.942 498.452,295.942 498.449,295.942 L498.449,295.943 L497.182,296.194 C497.181,296.194 497.182,296.194 497.179,296.194 L497.172,296.196 L497.172,296.195 L497.107,296.201 L497.108,296.207 L494.95,296.516 L494.95,296.511 L494.872,296.519 L494.872,296.524 L492.503,296.711 L492.502,296.705 L492.406,296.715 C492.029,296.677 492.235,296.722 491.799,296.539 L491.792,296.551 L489.141,295.02 L485.536,292.939 L485.543,292.927 C485.453,292.889 485.484,292.914 485.439,292.869 L485.435,292.874 L481.333,289.94 L481.337,289.935 L481.173,289.772 L481.157,289.787 L479.724,288.279 C479.355,288.435 479.537,288.392 479.184,288.427 L479.163,288.425 L479.163,288.427 L478.449,288.415 L478.449,288.413 C478.171,288.385 478.292,288.42 478.08,288.331 L478.074,288.35 L476.842,287.93 L476.848,287.911 L476.789,287.886 L476.781,287.907 L474.757,287.096 L474.766,287.075 L474.695,287.045 L474.686,287.065 L472.54,286.042 L472.549,286.022 C472.312,285.95 472.113,285.77 472.017,285.54 L472.005,285.547 L470.474,282.896 L468.393,279.291 L468.405,279.284 L468.359,279.176 L468.338,279.185 L466.253,274.593 L466.273,274.584 L466.184,274.371 L466.177,274.372 L465.693,272.366 C465.378,272.334 465.569,272.371 465.135,272.188 L465.13,272.198 L464.517,271.83 L464.523,271.821 C464.366,271.755 464.478,271.811 464.24,271.573 L464.225,271.586 L463.368,270.606 L463.383,270.593 L463.337,270.548 L463.326,270.556 L461.98,268.842 L461.991,268.834 L461.935,268.778 L461.933,268.779 L461.927,268.771 C461.927,268.77 461.927,268.77 461.927,268.77 L460.587,266.82 L460.588,266.819 C460.397,266.447 460.404,266.456 460.37,266.124 L460.37,258.901 L460.382,258.782 L460.376,258.781 L460.866,253.762 L460.872,253.762 C460.889,253.599 460.868,253.673 460.925,253.537 L460.91,253.533 L461.495,251.555 C461.284,251.485 461.181,251.299 461.105,251.118 L461.091,251.126 L460.745,250.502 L460.759,250.494 C460.711,250.38 460.663,250.267 460.615,250.153 C460.615,250.15 460.615,250.147 460.614,250.144 L460.613,250.144 L460.363,248.877 C460.362,248.876 460.363,248.876 460.362,248.874 L460.361,248.867 L460.362,248.867 L460.355,248.802 L460.35,248.803 L460.041,246.645 L460.046,246.644 L460.038,246.567 L460.032,246.567 L459.845,244.197 L459.851,244.197 L459.841,244.101 C459.88,243.724 459.834,243.93 460.018,243.493 L460.006,243.487 L461.537,240.836 L463.618,237.231 L463.63,237.238 C463.668,237.148 463.643,237.178 463.687,237.134 L463.683,237.13 L466.617,233.028 L466.622,233.031 L466.785,232.868 L466.77,232.852 L468.278,231.419 C468.122,231.05 468.165,231.232 468.129,230.878 L468.131,230.858 L468.13,230.858 L468.142,230.144 L468.143,230.144 C468.171,229.866 468.137,229.987 468.226,229.775 L468.207,229.769 L468.627,228.537 L468.646,228.543 L468.671,228.484 L468.649,228.476 L469.46,226.452 L469.482,226.461 L469.511,226.39 L469.492,226.381 L470.515,224.235 L470.535,224.244 C470.607,224.007 470.787,223.808 471.016,223.711 L471.01,223.7 L473.66,222.169 L477.265,220.088 L477.272,220.1 L477.381,220.054 L477.372,220.033 L481.964,217.947 L481.973,217.968 L482.186,217.878 L482.184,217.871 L484.19,217.388 C484.188,217.185 484.29,217.011 484.368,216.83 L484.359,216.824 L484.726,216.212 L484.736,216.218 C484.802,216.061 484.746,216.173 484.984,215.935 L484.971,215.92 L485.95,215.063 L485.963,215.078 L486.009,215.032 L486,215.021 L487.714,213.675 L487.723,213.685 L487.778,213.63 L487.777,213.628 L487.786,213.622 C487.786,213.622 487.787,213.622 487.787,213.622 L489.736,212.281 L489.737,212.283 C490.11,212.092 490.101,212.099 490.432,212.065 L497.656,212.065 L497.775,212.077 L497.775,212.071 L502.795,212.561 L502.794,212.567 C502.958,212.583 502.884,212.563 503.019,212.62 L503.024,212.605 L505.001,213.19 C505.072,212.979 505.258,212.876 505.439,212.8 L505.431,212.786 L506.055,212.439 L506.063,212.453 C506.176,212.406 506.29,212.358 506.404,212.31 C506.407,212.31 506.41,212.309 506.413,212.309 L506.413,212.308 L507.68,212.058 C507.681,212.057 507.68,212.058 507.682,212.057 L507.69,212.056 L507.69,212.057 L507.754,212.05 L507.754,212.045 L509.912,211.736 L509.912,211.741 L509.99,211.733 L509.989,211.727 L512.359,211.54 L512.36,211.546 L512.456,211.536 z M512.172,214.02 L510.221,214.174 L508.799,214.377 L514.038,217.235 L514.03,217.25 C514.175,217.311 514.11,217.268 514.225,217.383 L514.237,217.37 L519.379,221.655 L519.368,221.668 L519.499,221.8 L519.514,221.787 L524.044,226.929 L524.029,226.942 C524.066,226.98 524.104,227.017 524.141,227.054 C524.141,227.054 524.141,227.054 524.141,227.055 L527.691,232.318 C527.691,232.319 527.692,232.319 527.692,232.319 C527.712,232.368 527.733,232.417 527.753,232.466 L527.772,232.456 L529.853,236.619 L529.835,236.628 C529.975,236.962 529.947,236.816 529.971,237.053 L529.977,237.052 L530.222,239.623 L530.216,239.624 L530.228,239.74 L530.223,239.791 L530.227,239.791 L530.104,242.729 L530.1,242.729 C530.065,243.427 529.531,243.841 528.877,243.907 C528.198,243.907 527.648,243.357 527.648,242.678 L527.653,242.627 L527.649,242.627 L527.768,239.773 L527.553,237.513 L525.61,233.626 L522.148,228.494 L517.733,223.482 L512.756,219.334 L507.589,216.516 L502.44,214.995 L497.596,214.522 L490.814,214.522 L489.202,215.631 L488.072,216.518 L494.038,216.374 L494.038,216.376 L494.068,216.373 L494.276,216.394 L494.277,216.391 L500.873,217.531 L500.872,217.534 C500.961,217.543 500.899,217.533 501.05,217.597 L501.056,217.578 L507.55,219.766 L507.544,219.785 L507.687,219.845 L507.697,219.826 L513.404,222.61 L513.394,222.629 L513.541,222.691 L513.542,222.689 L513.552,222.695 C513.552,222.695 513.552,222.696 513.552,222.696 L517.426,225.253 L517.425,225.255 C517.429,225.257 517.432,225.258 517.436,225.26 C517.539,225.363 517.642,225.466 517.746,225.569 L517.75,225.566 L519.248,227.671 L519.243,227.674 C519.298,227.728 519.261,227.686 519.319,227.822 L519.335,227.813 L520.698,230.419 L520.682,230.428 C520.846,230.818 520.802,230.629 520.839,230.989 C520.839,231.667 520.288,232.217 519.61,232.217 C519.162,232.198 518.719,231.979 518.538,231.55 L518.521,231.558 L517.197,229.027 L515.881,227.178 L512.255,224.784 L506.69,222.069 L500.361,219.936 L493.977,218.833 L488.094,218.976 L482.873,220.233 L478.442,222.246 L474.889,224.297 L472.569,225.637 L471.726,227.403 L471.192,228.736 L476.286,225.628 L476.291,225.636 L476.51,225.544 L476.502,225.524 L482.784,223.213 L482.792,223.234 C482.848,223.21 482.905,223.186 482.961,223.163 C482.963,223.162 482.964,223.162 482.966,223.162 L482.966,223.162 L489.678,221.811 C489.68,221.81 489.679,221.811 489.682,221.81 L489.684,221.81 L489.685,221.81 L489.842,221.794 L489.841,221.788 L496.176,221.346 L496.176,221.352 L496.261,221.343 L496.335,221.35 L496.335,221.345 L500.981,221.624 L500.981,221.629 C501.246,221.656 501.101,221.624 501.408,221.753 L501.418,221.733 L503.767,222.806 L503.758,222.827 L503.911,222.892 L503.914,222.886 L506.398,224.462 L506.395,224.467 C506.791,224.65 506.929,225.108 506.968,225.499 C506.969,226.178 506.418,226.728 505.74,226.728 C505.346,226.688 505.569,226.735 505.085,226.531 L505.082,226.537 L502.669,225.006 L500.605,224.063 L496.268,223.803 L490.092,224.234 L483.544,225.552 L477.463,227.788 L472.439,230.854 L468.547,234.552 L465.716,238.511 L463.665,242.064 L462.325,244.385 L462.479,246.335 L462.683,247.757 L465.54,242.518 L465.555,242.526 C465.616,242.381 465.573,242.447 465.688,242.331 L465.675,242.32 L469.96,237.178 L469.974,237.189 L470.105,237.058 L470.092,237.042 L475.234,232.512 L475.247,232.527 C475.285,232.49 475.322,232.453 475.359,232.416 C475.359,232.415 475.36,232.415 475.36,232.415 L480.624,228.865 C480.624,228.865 480.624,228.865 480.624,228.865 C480.673,228.844 480.722,228.824 480.771,228.803 L480.761,228.785 L484.924,226.703 L484.933,226.722 C485.267,226.582 485.121,226.609 485.358,226.585 L485.357,226.579 L487.928,226.334 L487.929,226.341 L488.045,226.329 L488.096,226.334 L488.096,226.33 L491.034,226.452 L491.034,226.456 C491.732,226.491 492.146,227.025 492.212,227.68 C492.212,228.358 491.662,228.908 490.983,228.908 L490.932,228.903 L490.932,228.907 L488.078,228.788 L485.818,229.004 L481.932,230.947 L476.799,234.409 L471.787,238.824 L467.64,243.801 L464.822,248.967 L463.3,254.117 L462.828,258.961 L462.828,265.743 L463.936,267.355 L464.824,268.485 L464.679,262.519 L464.682,262.519 L464.679,262.489 L464.7,262.28 L464.697,262.28 L465.836,255.684 L465.84,255.684 C465.849,255.596 465.838,255.657 465.902,255.507 L465.883,255.501 L468.071,249.006 L468.09,249.013 L468.15,248.869 L468.131,248.86 L470.915,243.153 L470.934,243.162 L470.996,243.016 L470.994,243.015 L471.001,243.005 C471.001,243.005 471.001,243.005 471.001,243.004 L473.559,239.131 L473.56,239.132 C473.562,239.128 473.563,239.124 473.565,239.121 C473.668,239.017 473.771,238.914 473.875,238.811 L473.871,238.807 L475.976,237.309 L475.979,237.313 C476.033,237.259 475.991,237.295 476.127,237.238 L476.119,237.221 L478.725,235.858 L478.733,235.875 C479.123,235.711 478.934,235.755 479.294,235.718 C479.973,235.718 480.523,236.268 480.523,236.947 C480.503,237.394 480.284,237.838 479.855,238.019 L479.863,238.035 L477.332,239.36 L475.483,240.676 L473.089,244.302 L470.374,249.866 L468.242,256.196 L467.138,262.58 L467.281,268.463 L468.538,273.683 L470.551,278.115 L472.602,281.668 L473.942,283.988 L475.708,284.83 L477.042,285.365 L473.933,280.27 L473.941,280.265 L473.849,280.047 L473.829,280.055 L471.518,273.772 L471.539,273.765 C471.515,273.708 471.491,273.652 471.468,273.596 C471.467,273.594 471.467,273.592 471.467,273.591 L471.467,273.591 L470.116,266.879 C470.115,266.877 470.116,266.878 470.115,266.875 L470.115,266.872 L470.115,266.872 L470.099,266.715 L470.094,266.715 L469.651,260.381 L469.657,260.38 L469.648,260.295 L469.655,260.222 L469.65,260.222 L469.929,255.576 L469.934,255.576 C469.961,255.311 469.929,255.456 470.059,255.148 L470.038,255.139 L471.112,252.79 L471.132,252.799 L471.197,252.646 L471.192,252.642 L472.767,250.159 L472.772,250.162 C472.956,249.766 473.413,249.628 473.804,249.588 C474.483,249.588 475.033,250.138 475.033,250.817 C474.993,251.211 475.04,250.988 474.837,251.472 L474.842,251.475 L473.311,253.887 L472.368,255.952 L472.108,260.289 L472.539,266.465 L473.857,273.013 L476.093,279.093 L479.159,284.117 L482.858,288.009 L486.816,290.841 L490.37,292.892 L492.69,294.232 L494.641,294.078 L496.063,293.874 L490.823,291.016 L490.832,291.002 C490.686,290.94 490.752,290.984 490.636,290.868 L490.625,290.882 L485.483,286.596 L485.494,286.583 L485.363,286.451 L485.348,286.465 L480.818,281.323 L480.833,281.309 C480.795,281.272 480.758,281.235 480.721,281.197 C480.721,281.197 480.721,281.197 480.72,281.197 L477.171,275.933 C477.17,275.933 477.17,275.933 477.17,275.933 C477.15,275.884 477.129,275.835 477.108,275.786 L477.09,275.795 L475.009,271.632 L475.027,271.623 C474.887,271.29 474.914,271.436 474.891,271.199 L474.884,271.199 L474.64,268.628 L474.646,268.628 L474.634,268.512 L474.639,268.461 L474.635,268.461 L474.758,265.522 L474.762,265.522 C474.797,264.824 475.33,264.411 475.985,264.345 C476.664,264.345 477.214,264.895 477.214,265.573 L477.208,265.624 L477.213,265.625 L477.094,268.479 L477.309,270.738 L479.252,274.625 L482.714,279.758 L487.129,284.769 L492.106,288.917 L497.272,291.735 L502.422,293.257 L507.266,293.729 L514.048,293.729 L515.66,292.621 L516.79,291.733 L510.824,291.878 L510.824,291.875 L510.794,291.878 L510.585,291.857 L510.585,291.86 L503.989,290.72 L503.99,290.717 C503.901,290.708 503.963,290.718 503.812,290.655 L503.806,290.674 L497.312,288.486 L497.318,288.467 L497.175,288.406 L497.165,288.426 L491.458,285.641 L491.467,285.622 L491.321,285.561 L491.32,285.562 L491.31,285.556 C491.31,285.556 491.31,285.556 491.31,285.556 L487.436,282.998 L487.437,282.996 C487.433,282.995 487.43,282.993 487.426,282.992 C487.323,282.888 487.219,282.785 487.116,282.682 L487.112,282.685 L485.614,280.581 L485.619,280.578 C485.564,280.523 485.6,280.565 485.543,280.429 L485.526,280.438 L484.163,277.832 L484.18,277.823 C484.016,277.434 484.06,277.623 484.023,277.263 C484.023,276.584 484.573,276.034 485.252,276.034 C485.7,276.053 486.143,276.272 486.324,276.702 L486.34,276.693 L487.665,279.225 L488.981,281.074 L492.607,283.468 L498.171,286.182 L504.501,288.315 L510.885,289.418 L516.768,289.276 L521.988,288.019 L526.42,286.006 L529.973,283.954 L529.98,283.966 L529.98,283.966 L529.973,283.954 L532.293,282.615 L533.135,280.849 L533.67,279.515 L528.576,282.623 L528.571,282.615 L528.352,282.707 L528.36,282.728 L522.077,285.038 L522.07,285.018 C522.014,285.042 521.957,285.065 521.901,285.089 C521.899,285.089 521.897,285.089 521.896,285.09 L521.896,285.09 L515.183,286.441 C515.182,286.441 515.183,286.441 515.18,286.441 L515.177,286.442 L515.177,286.442 L515.02,286.457 L515.021,286.463 L508.686,286.906 L508.686,286.9 L508.6,286.909 L508.527,286.901 L508.527,286.906 L503.881,286.628 L503.881,286.622 C503.616,286.596 503.761,286.627 503.453,286.498 L503.444,286.519 L501.095,285.445 L501.104,285.424 L500.951,285.36 L500.947,285.365 L498.464,283.79 L498.467,283.785 C498.071,283.601 497.933,283.144 497.893,282.752 C497.893,282.074 498.443,281.524 499.122,281.524 C499.516,281.564 499.293,281.517 499.777,281.72 L499.78,281.715 L502.193,283.245 L504.257,284.188 L508.594,284.449 L514.77,284.017 L521.318,282.7 L527.398,280.463 L532.422,277.398 L536.315,273.699 L539.146,269.74 L541.197,266.187 L542.537,263.867 L542.383,261.916 L542.179,260.494 L539.322,265.733 L539.307,265.725 C539.246,265.87 539.289,265.804 539.173,265.92 L539.187,265.931 L534.902,271.074 L534.888,271.062 L534.757,271.194 L534.77,271.209 L529.628,275.739 L529.614,275.724 C529.577,275.761 529.54,275.799 529.503,275.836 C529.502,275.836 529.502,275.836 529.502,275.836 L524.238,279.386 C524.238,279.386 524.238,279.386 524.238,279.387 C524.189,279.407 524.14,279.428 524.091,279.448 L524.1,279.467 L519.938,281.548 L519.928,281.53 C519.595,281.67 519.741,281.642 519.504,281.666 L519.505,281.672 L516.933,281.917 L516.933,281.911 L516.817,281.923 L516.766,281.918 L516.766,281.922 L513.827,281.799 L513.828,281.795 C513.13,281.76 512.716,281.226 512.65,280.572 C512.65,279.893 513.2,279.343 513.879,279.343 L513.93,279.348 L513.93,279.344 L516.784,279.463 L519.044,279.248 L522.93,277.305 L528.063,273.843 L533.075,269.428 L537.222,264.451 L540.04,259.284 L541.562,254.135 L542.034,249.291 L542.034,242.509 L540.926,240.897 L540.038,239.767 L540.183,245.733 L540.18,245.733 L540.183,245.762 L540.162,245.971 L540.165,245.972 L539.025,252.568 L539.022,252.567 C539.013,252.656 539.023,252.594 538.96,252.744 L538.979,252.751 L536.791,259.245 L536.772,259.239 L536.711,259.382 L536.731,259.391 L533.947,265.099 L533.927,265.089 L533.866,265.236 L533.868,265.237 L533.861,265.247 C533.861,265.247 533.861,265.247 533.861,265.247 L531.303,269.121 L531.301,269.12 C531.3,269.123 531.298,269.127 531.297,269.131 C531.194,269.234 531.09,269.337 530.987,269.44 L530.99,269.445 L528.886,270.943 L528.883,270.938 C528.828,270.993 528.87,270.956 528.734,271.013 L528.743,271.03 L526.137,272.393 L526.128,272.377 C525.739,272.541 525.928,272.497 525.568,272.533 C524.889,272.533 524.339,271.983 524.339,271.305 C524.359,270.857 524.578,270.414 525.007,270.233 L524.998,270.216 L527.53,268.892 L529.379,267.576 L531.773,263.95 L534.487,258.385 L536.62,252.056 L537.724,245.672 L537.581,239.788 L536.324,234.568 L534.311,230.137 L532.26,226.584 L530.92,224.263 L529.154,223.421 L527.82,222.887 L530.929,227.981 L530.92,227.986 L531.012,228.204 L531.033,228.197 L533.344,234.479 L533.323,234.487 C533.347,234.543 533.37,234.599 533.394,234.656 C533.394,234.657 533.394,234.659 533.395,234.661 L533.395,234.661 L534.746,241.373 C534.746,241.375 534.746,241.374 534.746,241.376 L534.747,241.379 L534.747,241.379 L534.763,241.536 L534.768,241.536 L535.211,247.871 L535.205,247.871 L535.214,247.956 L535.206,248.03 L535.211,248.03 L534.933,252.676 L534.927,252.675 C534.901,252.941 534.933,252.796 534.803,253.103 L534.824,253.113 L533.75,255.462 L533.73,255.452 L533.665,255.606 L533.67,255.609 L532.095,258.093 L532.09,258.09 C531.906,258.486 531.449,258.624 531.058,258.663 C530.379,258.663 529.829,258.113 529.829,257.435 C529.869,257.041 529.822,257.264 530.025,256.78 L530.02,256.777 L531.55,254.364 L532.494,252.3 L532.754,247.962 L532.323,241.786 L531.005,235.239 L528.768,229.158 L525.703,224.134 L522.004,220.242 L518.046,217.411 L514.492,215.359 L512.172,214.02 z" fill="#FFFAFA"/>
      <g>
        <path d="M452.387,349.48 L460.053,327.528 L456.24,327.528 L450.42,345.79 L450.34,345.79 L443.998,327.528 L439.863,327.528 L433.441,345.79 L433.361,345.79 L427.741,327.528 L423.848,327.528 L431.193,349.48 L435.167,349.48 L441.79,331.033 L441.87,331.033 L448.413,349.48 z" fill="#FFFFFF"/>
        <path d="M481.488,349.418 Q480.605,349.818 479.039,349.818 Q477.715,349.818 476.932,349.249 Q476.149,348.68 476.149,347.389 Q474.744,348.68 472.878,349.249 Q471.012,349.818 468.844,349.818 Q467.439,349.818 466.175,349.572 Q464.91,349.326 463.987,348.803 Q463.064,348.281 462.522,347.435 Q461.98,346.59 461.98,345.391 Q461.98,344.038 462.582,343.177 Q463.184,342.316 464.168,341.778 Q465.151,341.24 466.416,340.964 Q467.68,340.687 469.005,340.502 Q470.409,340.287 471.674,340.18 Q472.938,340.072 473.902,339.872 Q474.865,339.672 475.427,339.288 Q475.989,338.904 475.989,338.166 Q475.989,337.305 475.567,336.782 Q475.146,336.26 474.484,335.983 Q473.821,335.706 472.998,335.614 Q472.176,335.522 471.373,335.522 Q469.205,335.522 467.76,336.152 Q466.315,336.782 466.195,338.535 L462.783,338.535 Q462.863,337.059 463.586,336.044 Q464.308,335.03 465.512,334.4 Q466.717,333.769 468.262,333.493 Q469.807,333.216 471.573,333.216 Q472.978,333.216 474.363,333.37 Q475.748,333.523 476.872,334 Q477.996,334.476 478.678,335.337 Q479.361,336.198 479.361,337.582 L479.361,345.76 Q479.361,346.682 479.501,347.112 Q479.641,347.543 480.444,347.543 Q480.886,347.543 481.488,347.389 z M475.949,341.271 Q475.306,341.64 474.263,341.809 Q473.219,341.978 472.075,342.086 Q470.931,342.193 469.767,342.332 Q468.603,342.47 467.68,342.777 Q466.757,343.085 466.175,343.654 Q465.593,344.222 465.593,345.206 Q465.593,345.852 465.934,346.298 Q466.275,346.743 466.817,347.02 Q467.359,347.297 468.081,347.42 Q468.804,347.543 469.607,347.543 Q471.293,347.543 472.497,347.189 Q473.701,346.836 474.464,346.298 Q475.226,345.76 475.587,345.129 Q475.949,344.499 475.949,343.946 z" fill="#FFFFFF"/>
        <path d="M484.86,327.528 L484.86,349.48 L488.271,349.48 L488.271,343.454 L491.483,341.179 L498.587,349.48 L502.922,349.48 L494.092,339.365 L502.32,333.585 L497.744,333.585 L488.271,340.533 L488.271,327.528 z" fill="#FFFFFF"/>
        <path d="M519.901,340.01 L507.98,340.01 Q508.06,339.088 508.502,338.273 Q508.943,337.459 509.706,336.844 Q510.469,336.229 511.532,335.875 Q512.596,335.522 513.921,335.522 Q515.205,335.522 516.269,335.875 Q517.332,336.229 518.115,336.828 Q518.898,337.428 519.359,338.258 Q519.821,339.088 519.901,340.01 z M523.193,344.438 L519.821,344.438 Q519.38,346.006 517.995,346.774 Q516.61,347.543 514.442,347.543 Q512.756,347.543 511.512,347.112 Q510.268,346.682 509.465,345.959 Q508.662,345.237 508.301,344.299 Q507.94,343.362 507.98,342.316 L523.514,342.316 Q523.594,340.871 523.173,339.273 Q522.751,337.674 521.647,336.321 Q520.544,334.968 518.717,334.092 Q516.891,333.216 514.121,333.216 Q511.994,333.216 510.208,333.831 Q508.421,334.446 507.117,335.553 Q505.812,336.659 505.09,338.166 Q504.367,339.672 504.367,341.486 Q504.448,343.3 505.07,344.837 Q505.692,346.374 506.936,347.481 Q508.181,348.588 510.007,349.203 Q511.833,349.818 514.322,349.818 Q517.854,349.818 520.182,348.465 Q522.51,347.112 523.193,344.438 z" fill="#FFFFFF"/>
        <path d="M561.646,341.548 L561.646,327.528 L557.833,327.528 L557.833,341.548 Q557.833,344.499 555.926,346.021 Q554.02,347.543 550.367,347.543 Q546.514,347.543 544.467,346.021 Q542.42,344.499 542.42,341.548 L542.42,327.528 L538.606,327.528 L538.606,341.548 Q538.606,345.944 541.717,347.958 Q544.828,349.972 550.367,349.972 Q555.786,349.972 558.716,347.866 Q561.646,345.76 561.646,341.548 z" fill="#FFFFFF"/>
        <path d="M567.306,333.585 L567.306,355.536 L570.718,355.536 L570.718,347.358 L570.798,347.358 Q571.36,348.066 572.183,348.542 Q573.006,349.019 573.929,349.295 Q574.852,349.572 575.795,349.695 Q576.739,349.818 577.501,349.818 Q579.87,349.818 581.656,349.172 Q583.442,348.527 584.626,347.405 Q585.81,346.282 586.392,344.776 Q586.974,343.269 586.974,341.578 Q586.974,339.888 586.372,338.381 Q585.77,336.875 584.586,335.722 Q583.402,334.569 581.616,333.892 Q579.829,333.216 577.421,333.216 Q575.254,333.216 573.447,333.816 Q571.641,334.415 570.798,335.737 L570.718,335.737 L570.718,333.585 z M583.362,341.394 Q583.362,342.562 583.041,343.669 Q582.719,344.776 581.997,345.637 Q581.274,346.498 580.09,347.02 Q578.906,347.543 577.14,347.543 Q575.374,347.543 574.13,347.036 Q572.885,346.528 572.103,345.698 Q571.32,344.868 570.959,343.777 Q570.597,342.685 570.597,341.517 Q570.597,340.41 570.939,339.334 Q571.28,338.258 572.042,337.413 Q572.805,336.567 574.009,336.045 Q575.213,335.522 576.939,335.522 Q578.585,335.522 579.809,336.014 Q581.034,336.506 581.816,337.336 Q582.599,338.166 582.98,339.227 Q583.362,340.287 583.362,341.394 z" fill="#FFFFFF"/>
      </g>
    </g>
  </g>
</svg>
